<?xml version="1.0" encoding="utf-8"?>
<!-- Generator: Adobe Illustrator 21.0.0, SVG Export Plug-In . SVG Version: 6.00 Build 0)  -->
<svg version="1.1" id="Calque_1" xmlns="http://www.w3.org/2000/svg" xmlns:xlink="http://www.w3.org/1999/xlink" x="0px" y="0px"
	 viewBox="0 0 539 478" style="enable-background:new 0 0 539 478;" xml:space="preserve">
<style type="text/css">
	.st0{fill:#F9CB70;}
	.st1{fill:#DDAA50;}
	.st2{opacity:0.26;fill:#BC805E;}
	.st3{fill:#282828;}
	.st4{fill:#FCFAF7;}
	.st5{fill:url(#SVGID_1_);}
	.st6{fill:#BF4128;}
	.st7{fill:#721309;}
	.st8{fill:#8E180C;}
	.st9{fill:#350904;}
	.st10{fill:#3D0A05;}
	.st11{fill:#3F0A06;}
	.st12{fill:#EFC16F;}
	.st13{fill:url(#SVGID_2_);}
	.st14{fill:url(#SVGID_3_);}
	.st15{fill:url(#SVGID_4_);}
	.st16{fill:url(#SVGID_5_);}
	.st17{fill:none;stroke:#282828;stroke-width:10.127;stroke-linecap:round;stroke-miterlimit:10;}
	.st18{fill:#84271A;}
	.st19{fill:#77100B;}
	.st20{fill:#280703;}
	.st21{fill:#590F07;}
	.st22{fill:#490B07;}
	.st23{fill:#FCF6E8;}
	.st24{fill:#BC9469;}
	.st25{opacity:0.4;fill:#F9E5BD;}
	.st26{fill:url(#SVGID_6_);}
	.st27{fill:url(#SVGID_7_);}
	.st28{fill:url(#SVGID_8_);}
	.st29{fill:url(#SVGID_9_);}
	.st30{fill:url(#SVGID_10_);}
	.st31{fill:url(#SVGID_11_);}
	.st32{fill:url(#SVGID_12_);}
	.st33{fill:url(#SVGID_13_);}
</style>
<g>
	<path class="st0" d="M-909.9,338c-7.1,45.9-102.4,134.2-194.3,130.7c-50.4-1.9-84.8-14.5-121.9-27.2c-30.6-10.5-63-21-107.7-25.8
		c-98.9-10.6-95.4-109.5-95.4-148.3c0-38.9,35.3-91.8,49.4-113c14.1-21.2,24.7-74.2,45.9-88.3c19-12.7,126.7-41.1,194.3-53.1
		c7.6-1.3,14.7-2.5,21.1-3.4c46.4-6.4,123.6,109.5,137.8,144.8C-966.4,189.7-902.8,292.1-909.9,338z"/>
	<path class="st1" d="M-910.6,314c-1.5-7.9-3.6-15.7-6.1-23.3c-5-15.3-11.2-30.1-17.9-44.7c-6.6-14.6-13.8-29-21-43.2
		c-7.2-14.3-14.7-28.5-21.2-43c-5.8-14.9-13.6-29.2-22-42.9c-8.3-13.7-17.4-27-27-39.9c-9.7-12.9-19.9-25.3-31.2-36.9
		c-5.5-5.7-11.4-11.1-17.7-16.1c-0.1-0.1-0.2-0.2-0.4-0.3c-6.4-5.1-13.2-9.8-20.8-13.3c-3.8-1.8-7.9-3.1-12.2-4
		c-1.1-0.2-2.2-0.3-3.3-0.4c-1.1-0.1-2.2-0.3-3.4-0.2l-3.4,0.2c-1.1,0-2,0.3-3.1,0.4c-7.9,1.2-16,2.2-23.9,3.7
		c-15.9,2.7-31.6,5.8-47.3,9.2c-22.9,4.9-45.7,10.2-68.4,16.2c-4.9,1.3-9.8,2.6-14.6,4c-0.6,0.1-1.1,0.3-1.7,0.5
		c-3,0.8-5.9,1.7-8.9,2.5c-7.7,2.3-15.4,4.7-23.1,7.2c-3.8,1.3-7.7,2.6-11.5,4.1c-2.8,1-5.5,2.1-8.3,3.4c-0.6,0.3-1.2,0.6-1.8,0.9
		c-0.5,0.2-1,0.5-1.5,0.7l-3,1.7l-1.5,0.8c-0.5,0.3-0.9,0.7-1.4,1.1l-2.8,2.2c-0.9,0.7-1.6,1.6-2.4,2.4l-2.3,2.5l-2,2.6
		c-0.6,0.9-1.3,1.7-1.9,2.7l-1.7,2.7c-2.4,3.9-4.5,7.9-6.5,11.9c0,0,0,0,0,0.1v0c0,0,0,0,0,0.1c-1.2,2.5-2.4,5.1-3.5,7.6
		c-0.4,0.9-0.8,1.7-1.1,2.6c-3.2,7.5-6,15-9,22.5c-2.9,7.4-5.8,14.8-9.2,21.5c-0.5,0.9-0.9,1.8-1.4,2.7c-0.1,0.2-0.2,0.4-0.3,0.5h0
		c-0.3,0.6-0.6,1.1-1,1.6l-1.4,2.3l-1.7,2.5l-6.7,10.1c-4.4,6.8-8.7,13.6-12.8,20.7c-4,7.1-7.9,14.2-11.5,21.6
		c-3.6,7.3-6.9,14.9-9.7,22.7c-2.9,7.8-5.1,15.9-6.6,24.2l-0.9,6.3c-0.2,2.1-0.2,4.3-0.4,6.5c-0.2,2.2-0.1,4.1-0.1,6.1l0,6
		c0.1,16.2,0.9,32.6,3.8,48.8c2.9,16.2,8,32.4,16.7,47c4.4,7.2,9.6,14,15.8,19.9c6.2,5.9,13.2,10.8,20.7,14.7
		c14.9,8,31.8,11.4,47.9,12.8c15.8,1.6,31.4,4.2,46.9,7.7c15.5,3.5,30.7,8,46,12.8c15.2,4.9,30.3,10.1,45.8,14.7
		c15.4,4.6,31.2,8.4,47.1,10.9c16,2.5,32,3.8,48.2,3.6c16.2-0.6,32.2-3.6,47.5-8.5c30.8-9.8,58.9-26.5,83.6-47.1
		c6.2-5.1,12.1-10.6,17.7-16.3c5.7-5.7,11-11.7,16-18c4.9-6.3,9.5-12.9,13.4-20c3.8-7,7.1-14.5,8.4-22.5
		C-908.4,330-909.2,321.9-910.6,314z M-918.7,360.2c-3.9,7-8.5,13.5-13.5,19.8c-5,6.3-10.3,12.2-16,17.8c-5.6,5.7-11.5,11-17.7,16.1
		c-24.6,20.3-52.8,36.8-83.3,46.4c-15.2,4.8-31.1,7.6-47.1,8c-16,0-32-1.5-47.7-4.2c-15.8-2.6-31.3-6.6-46.6-11.3
		c-15.3-4.7-30.3-10.2-45.5-15.3c-15.2-5.1-30.5-9.8-46.1-13.5c-15.6-3.7-31.4-6.6-47.3-8.4c-15.9-1.5-31.7-5.1-45.8-12.7
		c-7-3.8-13.5-8.4-19.2-14c-5.7-5.6-10.6-11.9-14.7-18.7c-8.2-13.7-13-29.2-15.7-44.9c-2.8-15.7-3.5-31.7-3.5-47.7
		c0.1-8-0.2-16,1.3-23.8c1.5-7.8,3.6-15.5,6.4-23c2.8-7.5,5.9-14.8,9.5-22c3.5-7.2,7.3-14.2,11.3-21.1c4-6.9,8.2-13.7,12.6-20.5
		l6.6-10c1-1.5,2.1-3.1,3-4.7c0.2-0.3,0.3-0.5,0.5-0.8c0.2-0.2,0.3-0.5,0.4-0.8c0.8-1.4,1.5-2.8,2.2-4.1c6.3-13.1,11-26.9,16.4-40.3
		c0.1-0.2,0.1-0.4,0.2-0.5c0.1-0.2,0.1-0.3,0.2-0.5c0.4-1.1,0.9-2.1,1.3-3.2c3.1-7.3,6.5-14.6,10.6-21.4c3.9-6.2,8.6-12.2,15-15.7
		c0.5-0.3,1-0.5,1.5-0.8c0.1-0.1,0.2-0.1,0.4-0.2c0.1,0,0.2-0.1,0.2-0.1c7-3.3,14.3-6,21.6-8.5c7.6-2.6,15.2-5,22.8-7.3
		c3-0.9,5.9-1.8,8.9-2.6c0,0,0.1,0,0.2,0c0.3-0.1,0.5-0.2,0.8-0.2c7.9-2.3,15.9-4.5,23.9-6.6c19.7-5.3,39.4-10.1,59.3-14.6
		c15.6-3.5,31.3-6.8,47-9.7c7.9-1.5,15.8-2.6,23.7-3.9c2-0.4,4-0.5,5.9-0.6c1-0.1,1.9,0.1,2.9,0.1c1,0.1,2,0.1,2.9,0.3
		c3.8,0.8,7.7,1.9,11.3,3.6c7.2,3.2,13.7,7.6,19.9,12.4c0.1,0.1,0.2,0.2,0.3,0.2c6.3,4.9,12.2,10.3,17.9,15.9
		c11.3,11.3,21.7,23.5,31.4,36.2c9.7,12.7,18.9,25.8,27.4,39.4c8.5,13.6,16.4,27.5,22.3,42.4c6.7,14.6,14.3,28.7,21.5,43
		c7.3,14.3,14.5,28.6,21.2,43.1c6.7,14.5,13,29.3,18.1,44.5c2.5,7.6,4.7,15.3,6.2,23.1c1.5,7.8,2.3,15.9,1.2,23.8
		C-911.6,345.8-914.8,353.2-918.7,360.2z"/>
</g>
<g>
	<path class="st0" d="M-1598.8,342.6c-6.3,40.7-90.7,118.9-172.1,115.8c-44.6-1.7-75.1-12.8-108-24.1c-27.1-9.3-55.8-18.6-95.4-22.9
		c-87.6-9.4-84.5-97-84.5-131.4c0-34.4,31.3-81.4,43.8-100.1s21.9-65.7,40.7-78.2c16.9-11.3,112.2-36.4,172.2-47.1
		c6.7-1.2,13.1-2.2,18.7-3c41.1-5.7,109.5,97,122.1,128.3C-1648.9,211.2-1592.5,302-1598.8,342.6z"/>
	<path class="st1" d="M-1599.4,321.4c-1.3-7-3.2-13.9-5.4-20.6c-4.4-13.5-9.9-26.6-15.8-39.6c-5.9-12.9-12.2-25.6-18.6-38.3
		c-6.4-12.7-13-25.2-18.8-38.1c-5.2-13.2-12.1-25.9-19.5-38c-7.4-12.2-15.4-23.9-23.9-35.4c-8.6-11.4-17.7-22.4-27.7-32.7
		c-4.9-5-10.1-9.8-15.6-14.3c-0.1-0.1-0.2-0.2-0.3-0.3c-5.7-4.5-11.7-8.7-18.5-11.8c-3.3-1.6-7-2.8-10.8-3.6
		c-0.9-0.2-1.9-0.2-2.9-0.4c-1-0.1-1.9-0.3-3-0.2l-3,0.2c-1,0-1.8,0.2-2.7,0.3c-7,1.1-14.1,2-21.2,3.2c-14.1,2.4-28,5.2-41.9,8.2
		c-20.3,4.4-40.5,9-60.6,14.3c-4.3,1.1-8.6,2.3-13,3.5c-0.5,0.1-1,0.3-1.5,0.4c-2.6,0.7-5.2,1.5-7.9,2.2c-6.8,2-13.7,4.1-20.5,6.4
		c-3.4,1.2-6.8,2.3-10.2,3.7c-2.4,0.9-4.9,1.9-7.3,3c-0.5,0.2-1.1,0.5-1.6,0.8c-0.4,0.2-0.9,0.4-1.3,0.6l-2.7,1.5l-1.3,0.7
		c-0.4,0.3-0.8,0.6-1.3,1l-2.5,2c-0.8,0.6-1.4,1.4-2.2,2.2l-2,2.2l-1.8,2.3c-0.6,0.8-1.2,1.5-1.7,2.3l-1.5,2.4
		c-2.1,3.5-4,7-5.7,10.6c0,0,0,0,0,0.1v0c0,0,0,0,0,0.1c-1.1,2.2-2.1,4.5-3.1,6.8c-0.3,0.8-0.7,1.5-1,2.3
		c-2.8,6.7-5.4,13.3-7.9,19.9c-2.6,6.6-5.2,13.1-8.2,19.1c-0.4,0.8-0.8,1.6-1.2,2.4c-0.1,0.2-0.2,0.3-0.3,0.5h0
		c-0.3,0.5-0.5,1-0.9,1.4l-1.2,2l-1.5,2.2l-5.9,8.9c-3.9,6-7.7,12.1-11.4,18.3c-3.6,6.3-7,12.6-10.2,19.1
		c-3.2,6.5-6.1,13.2-8.6,20.1c-2.6,6.9-4.5,14.1-5.9,21.5l-0.8,5.6c-0.2,1.9-0.2,3.8-0.3,5.8c-0.1,2-0.1,3.7-0.1,5.4l0,5.4
		c0.1,14.3,0.8,28.9,3.4,43.3c2.6,14.4,7.1,28.7,14.8,41.6c3.9,6.4,8.5,12.4,14,17.6c5.5,5.2,11.7,9.6,18.4,13
		c13.2,7,28.2,10.1,42.4,11.3c14,1.4,27.8,3.8,41.5,6.8c13.7,3.1,27.2,7,40.7,11.4c13.5,4.3,26.9,9,40.6,13
		c13.7,4,27.6,7.5,41.7,9.6c14.2,2.2,28.4,3.3,42.7,3.2c14.4-0.5,28.5-3.2,42.1-7.6c27.3-8.7,52.2-23.5,74-41.7
		c5.5-4.5,10.7-9.4,15.7-14.4c5-5,9.8-10.3,14.2-16c4.4-5.6,8.5-11.5,11.9-17.7c3.4-6.2,6.3-12.9,7.5-20
		C-1597.5,335.6-1598.2,328.4-1599.4,321.4z M-1606.6,362.3c-3.4,6.2-7.5,12-11.9,17.5c-4.4,5.6-9.2,10.8-14.2,15.8
		c-5,5-10.2,9.8-15.7,14.3c-21.8,18-46.8,32.6-73.8,41.1c-13.5,4.3-27.6,6.7-41.7,7.1c-14.1,0-28.3-1.3-42.3-3.7
		c-14-2.3-27.7-5.9-41.3-10c-13.5-4.2-26.9-9-40.3-13.5c-13.5-4.5-27-8.7-40.9-12c-13.8-3.3-27.8-5.8-41.9-7.4
		c-14.1-1.4-28.1-4.5-40.5-11.3c-6.2-3.3-12-7.4-17-12.4c-5.1-4.9-9.4-10.5-13-16.6c-7.2-12.1-11.5-25.9-13.9-39.8
		c-2.4-13.9-3.1-28.1-3.1-42.3c0-7.1-0.2-14.2,1.2-21.1c1.3-6.9,3.2-13.8,5.7-20.4c2.5-6.6,5.3-13.1,8.4-19.5
		c3.1-6.4,6.5-12.6,10-18.7c3.5-6.1,7.3-12.1,11.1-18.1l5.8-8.9c0.9-1.3,1.8-2.8,2.7-4.2c0.1-0.2,0.3-0.5,0.4-0.7
		c0.1-0.2,0.3-0.5,0.4-0.7c0.7-1.2,1.3-2.4,2-3.7c5.6-11.6,9.7-23.8,14.5-35.7c0.1-0.2,0.1-0.3,0.2-0.5c0.1-0.2,0.1-0.3,0.2-0.5
		c0.4-0.9,0.8-1.9,1.2-2.8c2.8-6.5,5.7-13,9.4-19c3.4-5.5,7.6-10.8,13.3-13.9c0.4-0.2,0.9-0.5,1.3-0.7c0.1-0.1,0.2-0.1,0.3-0.2
		c0.1,0,0.1-0.1,0.2-0.1c6.2-2.9,12.7-5.3,19.2-7.5c6.7-2.3,13.5-4.4,20.2-6.5c2.6-0.8,5.2-1.6,7.9-2.3c0,0,0.1,0,0.1,0
		c0.2-0.1,0.5-0.1,0.7-0.2c7-2,14.1-4,21.1-5.9c17.4-4.7,34.9-8.9,52.5-12.9c13.8-3.1,27.7-6,41.7-8.6c7-1.3,14-2.3,21-3.5
		c1.7-0.4,3.5-0.4,5.2-0.5c0.9-0.1,1.7,0.1,2.6,0.1c0.9,0.1,1.7,0.1,2.6,0.3c3.4,0.7,6.8,1.7,10,3.2c6.3,2.8,12.2,6.7,17.6,10.9
		c0.1,0.1,0.2,0.2,0.3,0.2c5.6,4.4,10.8,9.1,15.8,14.1c10,10,19.2,20.8,27.8,32.1c8.6,11.3,16.7,22.9,24.3,34.9
		c7.5,12,14.5,24.3,19.8,37.5c5.9,12.9,12.6,25.5,19,38.1c6.5,12.6,12.8,25.3,18.8,38.2c6,12.9,11.5,26,16,39.4
		c2.2,6.7,4.2,13.5,5.5,20.5c1.3,6.9,2,14.1,1,21.1C-1600.3,349.5-1603.2,356.1-1606.6,362.3z"/>
</g>
<g>
	<path class="st0" d="M-1779.2,791.9c-1.4,9.1-20.3,26.6-38.5,25.9c-10-0.4-16.8-2.9-24.1-5.4c-6.1-2.1-12.5-4.2-21.3-5.1
		c-19.6-2.1-18.9-21.7-18.9-29.4c0-7.7,7-18.2,9.8-22.4c2.8-4.2,4.9-14.7,9.1-17.5c3.8-2.5,25.1-8.1,38.5-10.5
		c1.5-0.3,2.9-0.5,4.2-0.7c9.2-1.3,24.5,21.7,27.3,28.7C-1790.4,762.5-1777.8,782.8-1779.2,791.9z"/>
	<path class="st1" d="M-1779.3,787.1c-0.3-1.6-0.7-3.1-1.2-4.6c-1-3-2.2-6-3.5-8.8c-1.3-2.9-2.7-5.7-4.2-8.6
		c-1.4-2.8-2.9-5.6-4.2-8.5c-1.2-3-2.7-5.8-4.4-8.5c-1.7-2.7-3.4-5.4-5.4-7.9c-1.9-2.5-3.9-5-6.2-7.3c-1.1-1.1-2.3-2.2-3.5-3.2
		c0,0,0,0-0.1-0.1c-1.3-1-2.6-1.9-4.1-2.6c-0.7-0.4-1.6-0.6-2.4-0.8c-0.2,0-0.4-0.1-0.6-0.1c-0.2,0-0.4-0.1-0.7,0l-0.7,0
		c-0.2,0-0.4,0.1-0.6,0.1c-1.6,0.2-3.2,0.4-4.7,0.7c-3.1,0.5-6.3,1.2-9.4,1.8c-4.5,1-9.1,2-13.6,3.2c-1,0.3-1.9,0.5-2.9,0.8
		c-0.1,0-0.2,0.1-0.3,0.1c-0.6,0.2-1.2,0.3-1.8,0.5c-1.5,0.5-3.1,0.9-4.6,1.4c-0.8,0.3-1.5,0.5-2.3,0.8c-0.5,0.2-1.1,0.4-1.6,0.7
		c-0.1,0.1-0.2,0.1-0.4,0.2c-0.1,0-0.2,0.1-0.3,0.1l-0.6,0.3l-0.3,0.2c-0.1,0.1-0.2,0.1-0.3,0.2l-0.6,0.4c-0.2,0.1-0.3,0.3-0.5,0.5
		l-0.5,0.5l-0.4,0.5c-0.1,0.2-0.3,0.3-0.4,0.5l-0.3,0.5c-0.5,0.8-0.9,1.6-1.3,2.4c0,0,0,0,0,0v0c0,0,0,0,0,0c-0.2,0.5-0.5,1-0.7,1.5
		c-0.1,0.2-0.1,0.3-0.2,0.5c-0.6,1.5-1.2,3-1.8,4.4c-0.6,1.5-1.2,2.9-1.8,4.3c-0.1,0.2-0.2,0.4-0.3,0.5c0,0,0,0.1-0.1,0.1h0
		c-0.1,0.1-0.1,0.2-0.2,0.3l-0.3,0.5l-0.3,0.5l-1.3,2c-0.9,1.3-1.7,2.7-2.5,4.1c-0.8,1.4-1.6,2.8-2.3,4.3c-0.7,1.5-1.4,3-1.9,4.5
		c-0.6,1.5-1,3.1-1.3,4.8l-0.2,1.3c0,0.4,0,0.9-0.1,1.3c0,0.4,0,0.8,0,1.2l0,1.2c0,3.2,0.2,6.5,0.8,9.7c0.6,3.2,1.6,6.4,3.3,9.3
		c0.9,1.4,1.9,2.8,3.1,3.9c1.2,1.2,2.6,2.1,4.1,2.9c3,1.6,6.3,2.3,9.5,2.5c3.1,0.3,6.2,0.8,9.3,1.5c3.1,0.7,6.1,1.6,9.1,2.5
		c3,1,6,2,9.1,2.9c3.1,0.9,6.2,1.7,9.3,2.2c3.2,0.5,6.3,0.7,9.6,0.7c3.2-0.1,6.4-0.7,9.4-1.7c6.1-1.9,11.7-5.3,16.6-9.3
		c1.2-1,2.4-2.1,3.5-3.2c1.1-1.1,2.2-2.3,3.2-3.6c1-1.2,1.9-2.6,2.7-4c0.8-1.4,1.4-2.9,1.7-4.5
		C-1778.9,790.3-1779,788.7-1779.3,787.1z M-1780.9,796.3c-0.8,1.4-1.7,2.7-2.7,3.9c-1,1.2-2,2.4-3.2,3.5c-1.1,1.1-2.3,2.2-3.5,3.2
		c-4.9,4-10.5,7.3-16.5,9.2c-3,1-6.2,1.5-9.3,1.6c-3.2,0-6.3-0.3-9.4-0.8c-3.1-0.5-6.2-1.3-9.2-2.2c-3-0.9-6-2-9-3
		c-3-1-6-1.9-9.1-2.7c-3.1-0.7-6.2-1.3-9.4-1.7c-3.1-0.3-6.3-1-9.1-2.5c-1.4-0.7-2.7-1.7-3.8-2.8c-1.1-1.1-2.1-2.4-2.9-3.7
		c-1.6-2.7-2.6-5.8-3.1-8.9c-0.5-3.1-0.7-6.3-0.7-9.5c0-1.6,0-3.2,0.3-4.7c0.3-1.5,0.7-3.1,1.3-4.6c0.5-1.5,1.2-2.9,1.9-4.3
		c0.7-1.4,1.5-2.8,2.2-4.2c0.8-1.4,1.6-2.7,2.5-4.1l1.3-2c0.2-0.3,0.4-0.6,0.6-0.9c0-0.1,0.1-0.1,0.1-0.2c0,0,0.1-0.1,0.1-0.2
		c0.2-0.3,0.3-0.5,0.4-0.8c1.3-2.6,2.2-5.3,3.2-8c0,0,0-0.1,0-0.1c0,0,0-0.1,0-0.1c0.1-0.2,0.2-0.4,0.3-0.6c0.6-1.5,1.3-2.9,2.1-4.2
		c0.8-1.2,1.7-2.4,3-3.1c0.1-0.1,0.2-0.1,0.3-0.2c0,0,0,0,0.1,0c0,0,0,0,0,0c1.4-0.7,2.8-1.2,4.3-1.7c1.5-0.5,3-1,4.5-1.4
		c0.6-0.2,1.2-0.3,1.8-0.5c0,0,0,0,0,0c0.1,0,0.1,0,0.2,0c1.6-0.5,3.1-0.9,4.7-1.3c3.9-1,7.8-2,11.7-2.9c3.1-0.7,6.2-1.4,9.3-1.9
		c1.6-0.3,3.1-0.5,4.7-0.8c0.4-0.1,0.8-0.1,1.2-0.1c0.2,0,0.4,0,0.6,0c0.2,0,0.4,0,0.6,0.1c0.8,0.2,1.5,0.4,2.2,0.7
		c1.4,0.6,2.7,1.5,3.9,2.4c0,0,0,0,0.1,0c1.2,1,2.4,2,3.5,3.2c2.2,2.2,4.3,4.7,6.2,7.2c1.9,2.5,3.7,5.1,5.4,7.8
		c1.7,2.7,3.3,5.4,4.4,8.4c1.3,2.9,2.8,5.7,4.3,8.5c1.4,2.8,2.9,5.7,4.2,8.5c1.3,2.9,2.6,5.8,3.6,8.8c0.5,1.5,0.9,3,1.2,4.6
		c0.3,1.6,0.4,3.1,0.2,4.7C-1779.5,793.4-1780.2,794.9-1780.9,796.3z"/>
</g>
<path class="st2" d="M-1346.4,352.3c19.3-9.6,24.1-12,38.5-4.8s38.5,26.5,31.3,31.3s-24.1,31.3-69.8,0
	C-1392.2,347.5-1356.1,357.1-1346.4,352.3z"/>
<g>
	<path class="st3" d="M-1108,318.9c0,16.7-5.8,32-15.5,44.1c-12.6-9.4-35.2-24.9-48.6-24.9c-19.2,0-9.6,0-16,0
		c-4.5,0-32.1,10.8-48.5,20.6c-7.8-11.3-12.3-25-12.3-39.8c0-28.6,17.1-18.6,41.6-11.3v16c0,2.7,2.2,4.9,4.9,4.9h9.5
		c2.7,0,4.9-2.2,4.9-4.9v-11.8c3.1,0.4,6.3,0.6,9.6,0.6c3.3,0,6.5-0.2,9.6-0.6v11.8c0,2.7,2.2,4.9,4.9,4.9h9.5
		c2.7,0,4.9-2.2,4.9-4.9v-16C-1125.1,300.3-1108,290.3-1108,318.9z"/>
	<path class="st4" d="M-1188.1,311.9v11.8c0,2.7-2.2,4.9-4.9,4.9h-9.5c-2.7,0-4.9-2.2-4.9-4.9v-16
		C-1201.3,309.4-1194.8,311.1-1188.1,311.9z"/>
	<path class="st4" d="M-1149.6,307.7v16c0,2.7-2.2,4.9-4.9,4.9h-9.5c-2.7,0-4.9-2.2-4.9-4.9v-11.8
		C-1162.1,311.1-1155.6,309.4-1149.6,307.7z"/>
	<linearGradient id="SVGID_1_" gradientUnits="userSpaceOnUse" x1="-1180.0447" y1="389.405" x2="-1180.0447" y2="338.1619">
		<stop  offset="0" style="stop-color:#EF5830"/>
		<stop  offset="0.3917" style="stop-color:#ED5830"/>
		<stop  offset="0.5328" style="stop-color:#E65630"/>
		<stop  offset="0.6334" style="stop-color:#DB532F"/>
		<stop  offset="0.7147" style="stop-color:#CA4F2E"/>
		<stop  offset="0.7845" style="stop-color:#B44A2E"/>
		<stop  offset="0.8461" style="stop-color:#98432D"/>
		<stop  offset="0.9019" style="stop-color:#783B2B"/>
		<stop  offset="0.9515" style="stop-color:#54332A"/>
		<stop  offset="0.9973" style="stop-color:#2B2928"/>
		<stop  offset="1" style="stop-color:#282828"/>
	</linearGradient>
	<path class="st5" d="M-1123.5,363c-12.9,16.1-32.7,26.4-55,26.4c-24.1,0-45.4-12.1-58.1-30.6c16.5-9.8,44.1-20.6,48.5-20.6
		c6.4,0-3.2,0,16,0C-1158.7,338.2-1136.1,353.6-1123.5,363z"/>
	<g>
		<path class="st6" d="M-1180.1,375c-0.3-2-0.4-3.9-0.4-5.8c0-1.9,0-3.7,0.1-5.6l0.3-5.5c0.1-1.8,0.2-3.6,0-5.6
			c1.5,1.4,2.1,3.5,2.5,5.4c0.4,1.9,0.5,3.9,0.4,5.9c-0.1,1.9-0.4,3.9-0.8,5.7C-1178.4,371.4-1179.1,373.3-1180.1,375z"/>
	</g>
</g>
<path class="st3" d="M-1246.5,156.9"/>
<path class="st2" d="M-1135.7,42.8c-21.3,3-24.1,7.2-28.9,26.5c-4.8,19.3,31.3,4.8,33.7,9.6c2.4,4.8,16.9-7.2,16.9-12
	C-1114,62.1-1118.9,40.4-1135.7,42.8z"/>
<g>
	<g>
		<path class="st7" d="M-1282.8,136.6c-2.7,0.9-5.6,1.7-8.4,2.6c-4.1,1.3-8.2,2.6-12.2,3.8l0,0c-8.7,2.8-16.7,5.3-21.9,7
			c-3.7,1.2-5.9,1.9-5.9,1.9c-1.9,0.5-3.8-0.6-4.3-2.5l-6-22.5c-0.5-1.9,0.6-3.8,2.5-4.3c0,0,1.2-0.1,3-0.3c1,2.2,7.2,1.2,13.6,1.5
			c2.5,0.1,10.1-3.4,20.1-8.5c1.4-0.4,3-0.9,4.6-1.4C-1288.1,122.6-1285.6,131.2-1282.8,136.6z"/>
		<path class="st8" d="M-1228.7,110.5l2.6,9.5c0.5,1.9-0.6,3.8-2.5,4.3c0,0-12.9,1.5-26.5,4.5c-8-5.8-25.1-12.4-27.6-19.5
			c5.8-1.8,11.9-3.7,17.7-5.5c12.4,4.5,27.2,13.9,32,11.7C-1231.4,114.8-1229.9,113-1228.7,110.5z"/>
		<path class="st8" d="M-1291.2,139.2c-4.1,1.3-8.2,2.6-12.2,3.8l0,0c-4.5-1.7-6.7-2.5-8.6-2c-2.7,0.7-2.1-8,0.5-8.7
			c2.7-0.7,2-3.4,6.6-7.5c4.6-4.1,6,1.2,10.9,8.5C-1292.7,135.4-1291.7,137.4-1291.2,139.2z"/>
	</g>
	<path class="st9" d="M-1232.2,97.6l3.5,13c-1.2,2.5-2.7,4.3-4.4,5.1c-4.8,2.2-19.6-7.2-32-11.7c15.4-4.8,28.5-8.9,28.5-8.9
		C-1234.6,94.6-1232.7,95.7-1232.2,97.6z"/>
	<path class="st10" d="M-1302.2,115.3c-10,5.1-17.7,8.6-20.1,8.5c-6.5-0.4-12.6,0.7-13.6-1.5c2.4-0.3,6.1-0.7,10.1-1.3l0,0
		c4.5-0.7,9.3-1.5,13.4-2.6c1.4-0.4,3.8-1.1,6.9-2C-1304.4,116-1303.3,115.7-1302.2,115.3z"/>
	<path class="st11" d="M-1255.2,128.9l-2,0.5c-2,0.5-4.1,1-6.1,1.5c-1.8,0.5-4.1,1.1-6.7,1.9c-2.8,0.8-6,1.8-9.4,2.8
		c-1.1,0.3-2.2,0.7-3.4,1.1c-2.8-5.4-5.3-14-14.8-22.7c4.5-1.3,9.5-2.9,14.8-4.5C-1280.3,116.5-1263.2,123.1-1255.2,128.9z"/>
</g>
<path class="st12" d="M-909.9,338c-7.1,45.9-102.4,134.2-194.3,130.7c-50.4-1.9-84.8-14.5-121.9-27.2c53.1-0.5,108.6-8.8,166.2-17
	c84.3-12,16.9-118,38.5-149.3c21.7-31.3-36.1-113.2-62.6-144.5s-14.4-62.6-14.4-79.5c0-13.5-29.4-31.7-41.1-38.3
	c7.6-1.3,14.7-2.5,21.1-3.4c46.4-6.4,123.6,109.5,137.8,144.8C-966.4,189.7-902.8,292.1-909.9,338z"/>
<path class="st2" d="M-978.7,346.2c18-4.5,16.2-13,13-22.7c-3.2-9.7-26-34.1-32.5-32.5c-6.5,1.6-13,27.6-4.9,32.5
	C-995,328.3-985.2,347.8-978.7,346.2z"/>
<g>
	<g>
		<g>
			<radialGradient id="SVGID_2_" cx="-1271.2451" cy="206.7435" r="53.2577" gradientUnits="userSpaceOnUse">
				<stop  offset="0" style="stop-color:#FFFFFF"/>
				<stop  offset="0.821" style="stop-color:#FFFDFD"/>
				<stop  offset="1" style="stop-color:#FFFAFA"/>
			</radialGradient>
			<path class="st13" d="M-1212.6,218.2c0-32.4-26.3-58.7-58.7-58.7c-32.4,0-58.7,26.3-58.7,58.7s26.3,35.8,58.7,35.8
				C-1238.8,254-1212.6,250.6-1212.6,218.2z"/>
			<path class="st1" d="M-1212.6,218.2c-0.1-7.1-1.4-14.3-4-20.9c-2.6-6.6-6.5-12.7-11.3-18c-4.8-5.2-10.6-9.5-16.9-12.6
				c-6.3-3.1-13.2-5-20.1-5.5c-6.9-0.6-14,0.1-20.6,2c-6.6,1.9-12.9,5-18.4,9.1c-5.5,4-10.3,9.1-14,14.8c-3.8,5.7-6.5,12.1-7.9,18.7
				c-0.8,3.3-1.2,6.7-1.4,10.1c-0.2,3.4,0,6.8,0.5,10.1c1,6.6,4,12.7,9.2,16.7c5.1,4.1,11.8,6.3,18.7,7.6c6.8,1.3,13.9,1.9,21,2.2
				c7.1,0.3,14.2,0.5,21.3,0.3c7.1-0.3,14.2-0.9,21-2.8c3.4-1,6.7-2.3,9.7-4.2c3-1.9,5.7-4.3,7.7-7.2c2-2.9,3.4-6.3,4.3-9.7
				C-1212.9,225.3-1212.6,221.8-1212.6,218.2z M-1212.6,218.2c0,3.6-0.3,7.1-1.1,10.6c-0.8,3.5-2.2,6.8-4.2,9.8
				c-2,3-4.6,5.5-7.6,7.5c-3,2-6.3,3.4-9.7,4.5c-6.9,2.2-14,3.2-21.2,3.8c-7.2,0.6-14.3,0.8-21.5,0.8c-7.2,0-14.4-0.1-21.6-1.2
				c-3.6-0.5-7.2-1.3-10.8-2.5c-3.5-1.2-7-2.8-10.1-5.2c-1.6-1.1-3-2.5-4.3-3.9c-1.3-1.5-2.5-3.1-3.4-4.8c-1.9-3.4-3.2-7.1-3.8-10.9
				c-0.7-3.7-0.8-7.5-0.7-11.2c0.1-3.7,0.6-7.4,1.4-11.1c1.7-7.3,4.7-14.2,8.9-20.4c4.2-6.2,9.6-11.5,15.7-15.7
				c6.1-4.2,13-7.2,20.2-8.9c7.2-1.7,14.6-2,21.9-1c14.5,1.9,28,9.4,37.3,20.3C-1217.8,189.7-1212.5,203.9-1212.6,218.2z"/>
		</g>
		<path class="st3" d="M-1224.9,198.7c0,6.8-5.5,12.3-12.3,12.3s-12.3-5.5-12.3-12.3c0-6.8,5.5-12.3,12.3-12.3
			c2.3,0,4.4,0.6,6.2,1.7c-2,0.8-3.5,2.8-3.5,5.1c0,3,2.5,5.5,5.5,5.5c1.6,0,3-0.7,4-1.7C-1224.9,197.5-1224.9,198-1224.9,198.7z"/>
	</g>
	<g>
		<g>
			<radialGradient id="SVGID_3_" cx="-1085.6735" cy="206.7435" r="53.2577" gradientUnits="userSpaceOnUse">
				<stop  offset="0" style="stop-color:#FFFFFF"/>
				<stop  offset="0.821" style="stop-color:#FFFDFD"/>
				<stop  offset="1" style="stop-color:#FFFAFA"/>
			</radialGradient>
			<path class="st14" d="M-1027,218.2c0-32.4-26.3-58.7-58.7-58.7s-58.7,26.3-58.7,58.7s26.3,35.8,58.7,35.8S-1027,250.6-1027,218.2
				z"/>
			<path class="st1" d="M-1027,218.2c-0.1-7.1-1.4-14.3-4-20.9c-2.6-6.6-6.5-12.7-11.3-18c-4.8-5.2-10.6-9.5-16.9-12.6
				c-6.3-3.1-13.2-5-20.1-5.5c-6.9-0.6-14,0.1-20.6,2c-6.6,1.9-12.9,5-18.4,9.1c-5.5,4-10.3,9.1-14,14.8c-3.8,5.7-6.5,12.1-7.9,18.7
				c-0.8,3.3-1.2,6.7-1.4,10.1c-0.2,3.4,0,6.8,0.5,10.1c1,6.6,4,12.7,9.2,16.7c5.1,4.1,11.8,6.3,18.7,7.6c6.8,1.3,13.9,1.9,21,2.2
				c7.1,0.3,14.2,0.5,21.3,0.3c7.1-0.3,14.2-0.9,21-2.8c3.4-1,6.7-2.3,9.7-4.2c3-1.9,5.7-4.3,7.7-7.2c2-2.9,3.4-6.3,4.3-9.7
				C-1027.4,225.3-1027,221.8-1027,218.2z M-1027,218.2c0,3.6-0.3,7.1-1.1,10.6c-0.8,3.5-2.2,6.8-4.2,9.8c-2,3-4.6,5.5-7.6,7.5
				c-3,2-6.3,3.4-9.7,4.5c-6.9,2.2-14,3.2-21.2,3.8c-7.2,0.6-14.3,0.8-21.5,0.8c-7.2,0-14.4-0.1-21.6-1.2c-3.6-0.5-7.2-1.3-10.8-2.5
				c-3.5-1.2-7-2.8-10.1-5.2c-1.6-1.1-3-2.5-4.3-3.9c-1.3-1.5-2.5-3.1-3.4-4.8c-1.9-3.4-3.2-7.1-3.8-10.9c-0.7-3.7-0.8-7.5-0.7-11.2
				c0.1-3.7,0.6-7.4,1.4-11.1c1.7-7.3,4.7-14.2,8.9-20.4c4.2-6.2,9.6-11.5,15.7-15.7c6.1-4.2,13-7.2,20.2-8.9c7.2-1.7,14.6-2,21.9-1
				c14.5,1.9,28,9.4,37.3,20.3C-1032.2,189.7-1026.9,203.9-1027,218.2z"/>
		</g>
		<path class="st3" d="M-1104.8,198.7c0,6.8-5.5,12.3-12.3,12.3s-12.3-5.5-12.3-12.3c0-6.8,5.5-12.3,12.3-12.3
			c2.3,0,4.4,0.6,6.2,1.7c-2,0.8-3.5,2.8-3.5,5.1c0,3,2.5,5.5,5.5,5.5c1.6,0,3-0.7,4-1.7C-1104.8,197.5-1104.8,198-1104.8,198.7z"/>
	</g>
</g>
<g>
	<path class="st3" d="M-1772,319c0,16.7-5.8,32-15.5,44.1c-12.9,16.1-32.7,26.4-55,26.4c-24.2,0-45.4-12.1-58.1-30.6
		c-7.8-11.3-12.3-25-12.3-39.8c0-28.6,17.1-18.6,41.6-11.3c6,1.8,12.5,3.4,19.2,4.2c3.1,0.4,6.3,0.6,9.6,0.6s6.5-0.2,9.6-0.6
		c6.8-0.8,13.2-2.5,19.2-4.2C-1789.1,300.3-1772,290.3-1772,319z"/>
</g>
<g>
	<g>
		<g>
			<radialGradient id="SVGID_4_" cx="-1935.2451" cy="206.7435" r="53.2577" gradientUnits="userSpaceOnUse">
				<stop  offset="0" style="stop-color:#FFFFFF"/>
				<stop  offset="0.821" style="stop-color:#FFFDFD"/>
				<stop  offset="1" style="stop-color:#FFFAFA"/>
			</radialGradient>
			<path class="st15" d="M-1876.6,218.2c0-32.4-26.3-58.7-58.7-58.7c-32.4,0-58.7,26.3-58.7,58.7s26.3,35.8,58.7,35.8
				C-1902.8,254-1876.6,250.6-1876.6,218.2z"/>
			<path class="st1" d="M-1876.6,218.2c-0.1-7.1-1.4-14.3-4-20.9c-2.6-6.6-6.5-12.7-11.3-18c-4.8-5.2-10.6-9.5-16.9-12.6
				c-6.3-3.1-13.2-5-20.1-5.5c-6.9-0.6-14,0.1-20.6,2c-6.6,1.9-12.9,5-18.4,9.1c-5.5,4-10.3,9.1-14,14.8c-3.8,5.7-6.5,12.1-7.9,18.7
				c-0.8,3.3-1.2,6.7-1.4,10.1c-0.2,3.4,0,6.8,0.5,10.1c1,6.6,4,12.7,9.2,16.7c5.1,4.1,11.8,6.3,18.7,7.6c6.8,1.3,13.9,1.9,21,2.2
				c7.1,0.3,14.2,0.5,21.3,0.3c7.1-0.3,14.2-0.9,21-2.8c3.4-1,6.7-2.3,9.7-4.2c3-1.9,5.7-4.3,7.7-7.2c2-2.9,3.4-6.3,4.3-9.7
				C-1876.9,225.3-1876.6,221.8-1876.6,218.2z M-1876.6,218.2c0,3.6-0.3,7.1-1.1,10.6c-0.8,3.5-2.2,6.8-4.2,9.8
				c-2,3-4.6,5.5-7.6,7.5c-3,2-6.3,3.4-9.7,4.5c-6.9,2.2-14,3.2-21.2,3.8c-7.2,0.6-14.3,0.8-21.5,0.8c-7.2,0-14.4-0.1-21.6-1.2
				c-3.6-0.5-7.2-1.3-10.8-2.5c-3.5-1.2-7-2.8-10.1-5.2c-1.6-1.1-3-2.5-4.3-3.9c-1.3-1.5-2.5-3.1-3.4-4.8c-1.9-3.4-3.2-7.1-3.8-10.9
				c-0.7-3.7-0.8-7.5-0.7-11.2c0.1-3.7,0.6-7.4,1.4-11.1c1.7-7.3,4.7-14.2,8.9-20.4c4.2-6.2,9.6-11.5,15.7-15.7
				c6.1-4.2,13-7.2,20.2-8.9c7.2-1.7,14.6-2,21.9-1c14.5,1.9,28,9.4,37.3,20.3C-1881.8,189.7-1876.5,203.9-1876.6,218.2z"/>
		</g>
	</g>
	<g>
		<g>
			<radialGradient id="SVGID_5_" cx="-1749.6735" cy="206.7435" r="53.2577" gradientUnits="userSpaceOnUse">
				<stop  offset="0" style="stop-color:#FFFFFF"/>
				<stop  offset="0.821" style="stop-color:#FFFDFD"/>
				<stop  offset="1" style="stop-color:#FFFAFA"/>
			</radialGradient>
			<path class="st16" d="M-1691,218.2c0-32.4-26.3-58.7-58.7-58.7s-58.7,26.3-58.7,58.7s26.3,35.8,58.7,35.8S-1691,250.6-1691,218.2
				z"/>
			<path class="st1" d="M-1691,218.2c-0.1-7.1-1.4-14.3-4-20.9c-2.6-6.6-6.5-12.7-11.3-18c-4.8-5.2-10.6-9.5-16.9-12.6
				c-6.3-3.1-13.2-5-20.1-5.5c-6.9-0.6-14,0.1-20.6,2c-6.6,1.9-12.9,5-18.4,9.1c-5.5,4-10.3,9.1-14,14.8c-3.8,5.7-6.5,12.1-7.9,18.7
				c-0.8,3.3-1.2,6.7-1.4,10.1c-0.2,3.4,0,6.8,0.5,10.1c1,6.6,4,12.7,9.2,16.7c5.1,4.1,11.8,6.3,18.7,7.6c6.8,1.3,13.9,1.9,21,2.2
				c7.1,0.3,14.2,0.5,21.3,0.3c7.1-0.3,14.2-0.9,21-2.8c3.4-1,6.7-2.3,9.7-4.2c3-1.9,5.7-4.3,7.7-7.2c2-2.9,3.4-6.3,4.3-9.7
				C-1691.4,225.3-1691,221.8-1691,218.2z M-1691,218.2c0,3.6-0.3,7.1-1.1,10.6c-0.8,3.5-2.2,6.8-4.2,9.8c-2,3-4.6,5.5-7.6,7.5
				c-3,2-6.3,3.4-9.7,4.5c-6.9,2.2-14,3.2-21.2,3.8c-7.2,0.6-14.3,0.8-21.5,0.8c-7.2,0-14.4-0.1-21.6-1.2c-3.6-0.5-7.2-1.3-10.8-2.5
				c-3.5-1.2-7-2.8-10.1-5.2c-1.6-1.1-3-2.5-4.3-3.9c-1.3-1.5-2.5-3.1-3.4-4.8c-1.9-3.4-3.2-7.1-3.8-10.9c-0.7-3.7-0.8-7.5-0.7-11.2
				c0.1-3.7,0.6-7.4,1.4-11.1c1.7-7.3,4.7-14.2,8.9-20.4c4.2-6.2,9.6-11.5,15.7-15.7c6.1-4.2,13-7.2,20.2-8.9c7.2-1.7,14.6-2,21.9-1
				c14.5,1.9,28,9.4,37.3,20.3C-1696.2,189.7-1690.9,203.9-1691,218.2z"/>
		</g>
	</g>
</g>
<path class="st17" d="M-1368,328"/>
<g>
	<g>
		<path class="st18" d="M-1080.2,132.9c-2.8-0.7-5.7-1.4-8.6-2.2c-4.1-1-8.3-2.1-12.4-3.1l0,0c-8.9-2.2-17-4.1-22.3-5.4
			c-3.7-0.9-6-1.4-6-1.4c-1.9-0.5-2.9-2.5-2.4-4.4l6.5-22.4c0.5-1.9,2.5-2.9,4.4-2.4c0,0,1,0.5,2.7,1.3c-0.3,2.4,5.5,4.7,10.9,8.4
			c2,1.4,10.4,2.4,21.6,3.2c1.4,0.4,3,0.8,4.7,1.2C-1077.5,118.1-1079.8,126.7-1080.2,132.9z"/>
		<path class="st19" d="M-1020.5,138.6l-2.8,9.5c-0.5,1.9-2.5,2.9-4.4,2.4c0,0-11.8-5.5-25-10c-3.8-9.1-15-23.7-13.5-31
			c5.9,1.5,12.1,3,18,4.5c8.3,10.2,16,26,21.3,26.6C-1025,140.9-1022.8,140.1-1020.5,138.6z"/>
		<path class="st20" d="M-1088.8,130.7c-4.1-1-8.3-2.1-12.4-3.1l0,0c-3-3.7-4.4-5.6-6.3-6.2c-2.7-0.8,2.3-8,5-7.2s3.4-1.9,9.5-3
			c6.1-1.1,4.5,4.2,4.9,12.9C-1088.1,126.6-1088.3,128.9-1088.8,130.7z"/>
	</g>
	<path class="st21" d="M-1016.7,125.8l-3.8,12.9c-2.3,1.5-4.5,2.3-6.4,2.1c-5.3-0.6-13-16.3-21.3-26.6c15.7,3.9,29,7.3,29,7.3
		C-1017.3,121.9-1016.2,123.9-1016.7,125.8z"/>
	<path class="st22" d="M-1085.8,104.6c-11.2-0.8-19.6-1.8-21.6-3.2c-5.3-3.7-11.1-6-10.9-8.4c2.2,1,5.6,2.6,9.4,4.1l0,0
		c4.2,1.8,8.8,3.5,12.9,4.7c1.4,0.4,3.8,1.1,6.9,1.9C-1088,104-1086.9,104.3-1085.8,104.6z"/>
	<path class="st10" d="M-1052.6,140.6l-2-0.7c-2-0.6-4-1.3-6-1.9c-1.8-0.5-4.1-1.2-6.7-1.9c-2.8-0.7-6-1.6-9.5-2.5
		c-1.1-0.3-2.3-0.6-3.5-0.9c0.4-6.1,2.7-14.8-0.9-27.1c4.5,1.2,9.7,2.5,15,3.8C-1067.7,116.9-1056.4,131.5-1052.6,140.6z"/>
</g>
<g>
	<path class="st23" d="M-1074.8,24c0,0.4-0.2,0.8-0.4,1.1c-0.3,0.4-0.8,0.7-1.5,0.8c-0.1,0-0.2,0.1-0.3,0.1h0c0,0,0,0,0,0
		c-0.2,0.1-0.4,0.1-0.6,0.2c-9.3,4.9-18.3,45.7-18.3,55c0,4.4-1.5,5.8-3.1,5.5c-0.1,0-0.1,0-0.2,0c-0.1,0-0.1,0-0.2,0
		c-0.1,0-0.1,0-0.2-0.1c-0.2-0.1-0.4-0.2-0.6-0.3c-0.1,0-0.2-0.1-0.3-0.2c-0.1-0.1-0.2-0.1-0.3-0.2c-0.1-0.1-0.2-0.2-0.3-0.2
		c-1.2-1-2.1-2.8-2.1-4.5V62.1c0-28.9-40.9-14.5-40.9,16.9v103.5c0,9.6-7.2,9.6-7.2,0V91c0-60.2-19.3-36.1-19.3-24.1v67.4
		c0,7.2-7.2,7.2-7.2,0v-33.7c0-24.1-19.3-31.3-19.3,0v72.2c0,7.2-9.6,7.2-9.6,0v-43.3c0-27.9-6.7-82.6-43.9-90.8
		c-0.5-0.1-0.9-0.2-1.4-0.3c-0.9-0.2-1.9-0.3-2.9-0.5l-6-2.7c22.7-6,45.5-11.2,68.4-16.2c15.7-3.4,31.5-6.5,47.3-9.2
		c0.4-0.1,0.7-0.1,1.1-0.2c7.6-1.3,15.2-2.3,22.8-3.5c1-0.1,1.9-0.3,3.1-0.4l3.4-0.2c1.2-0.1,2.2,0.1,3.4,0.2
		c1.1,0.1,2.2,0.2,3.3,0.4c4.3,0.9,8.4,2.2,12.2,4c7.7,3.5,14.5,8.3,20.8,13.3C-1075,23.8-1074.9,23.9-1074.8,24z"/>
	<path class="st24" d="M-1073.7,24.9c-0.1,0.2-0.1,0.3-0.2,0.5c-0.2,0.4-0.5,0.7-0.9,1c-0.3,0.3-0.7,0.4-1.1,0.6
		c-0.2,0.1-0.3,0.1-0.5,0.2c-0.1,0-0.1,0-0.1,0c0,0,0,0-0.1,0l-0.5,0.1c0,0,0,0,0,0l0.4-0.1c-1,0.4-1.9,1.2-2.7,2.2
		c-0.8,1-1.5,2.1-2.2,3.3c-1.3,2.3-2.4,4.9-3.5,7.4c-2,5.1-3.6,10.5-5.1,15.8c-1.4,5.4-2.6,10.8-3.6,16.3c-0.5,2.7-0.9,5.5-1.1,8.2
		l0,1c0,0.4,0,0.7,0,1.1c0,0.7-0.1,1.5-0.4,2.3c-0.2,0.8-0.6,1.6-1.3,2.3c-0.4,0.4-0.8,0.7-1.4,0.8c-0.3,0.1-0.5,0.1-0.8,0.1
		c-0.3,0-0.6,0-0.7-0.1l-0.2,0c0,0,0,0,0,0l-0.3-0.1c-0.1,0,0,0-0.2-0.1l-0.4-0.2c-0.1-0.1-0.3-0.1-0.4-0.2l-0.3-0.2l-0.1,0l-0.1,0
		l-0.3-0.3l0.1,0.1c-1.1-0.8-1.7-1.7-2.2-2.8c-0.2-0.5-0.4-1.1-0.5-1.7c-0.1-0.3-0.1-0.6-0.1-0.9c0-0.3,0-0.5,0-0.8l0-6.1l0-12.2
		c0-1-0.1-2-0.1-2.9l-0.2-1.4l-0.1-0.7l-0.2-0.7c-0.4-1.9-1.2-3.6-2.3-5.1c-1.1-1.5-2.6-2.6-4.3-3.3c-1.7-0.7-3.6-0.9-5.5-0.8
		c-1.9,0.1-3.8,0.5-5.6,1.2c-1.8,0.7-3.6,1.5-5.2,2.6c-3.3,2-6.2,4.8-8.6,7.9c-2.4,3.1-4.1,6.7-5.2,10.5c-0.6,1.9-0.9,3.8-1.1,5.8
		c-0.2,2-0.2,3.9-0.2,6l-0.1,97.4l0,3c0,1,0,2.1-0.2,3.2c-0.2,1.1-0.5,2.1-1,3.2c-0.3,0.5-0.6,1-1.1,1.4c-0.5,0.4-1.1,0.8-1.8,0.9
		c-0.7,0.1-1.5-0.1-2-0.5c-0.6-0.4-1-0.8-1.3-1.3c-0.7-1-1-2.1-1.2-3.1c-0.2-1.1-0.3-2.1-0.3-3.2l0-3l0-24.3l0.1-48.7
		c0-8.1,0.1-16.2-0.1-24.3c-0.2-4-0.4-8.1-0.9-12.1c-0.5-4-1.2-8-2.6-11.7c-0.7-1.8-1.6-3.6-3-4.8c-0.7-0.5-1.5-0.9-2.3-0.9
		c-0.8,0-1.7,0.4-2.4,0.9c-1.5,1.1-2.8,2.6-3.7,4.3c-1,1.7-1.7,3.5-2.2,5.4c-0.1,0.5-0.2,1-0.3,1.4c-0.1,0.5-0.2,1-0.2,1.4
		c-0.1,0.9,0,2,0,3l0,6.1l0,12.2l0,24.3l0,12.2l0,6.1l0,3c0,0.5,0,1,0,1.5c-0.1,0.5,0,1.1-0.2,1.6c-0.2,1.1-0.6,2.2-1.4,3
		c-0.8,0.9-2.1,1.4-3.3,1.1c-1.2-0.2-2.2-1.2-2.7-2.2c-0.5-1-0.8-2.1-0.8-3.2c-0.1-4.1,0-8.1,0-12.2l0-12.2l0-6.1c0-2,0-4.1,0-6.1
		c-0.1-2-0.4-4-0.8-5.9c-0.4-1.9-1-3.9-1.9-5.6c-0.8-1.8-1.9-3.5-3.3-4.8c-0.7-0.6-1.5-1.2-2.4-1.5c-0.9-0.3-1.8-0.4-2.7-0.1
		c-0.4,0.1-0.8,0.3-1.3,0.5c-0.4,0.3-0.8,0.5-1.1,0.9c-0.7,0.6-1.2,1.5-1.7,2.3c-0.9,1.7-1.5,3.6-2,5.6c-0.9,3.9-1.1,7.9-1.1,12
		l-0.1,48.7l0,12.2l0,6.1l0,3c0,0.5,0,1,0,1.5c0,0.5-0.1,1.1-0.3,1.6c-0.5,2.1-2.6,3.8-4.8,3.9c-1.1,0-2.2-0.3-3.1-0.9
		c-0.9-0.6-1.5-1.6-1.9-2.6l-0.2-0.8c-0.1-0.3-0.1-0.5-0.1-0.8c-0.1-0.5-0.1-1.1-0.1-1.6l0-3l0-6.1l0-24.3c0-4.1,0-8.1,0-12.2
		c-0.1-4-0.3-8.1-0.6-12.1c-0.6-8.1-1.8-16.1-3.6-24c-1.8-7.9-4.2-15.7-7.7-23c-3.5-7.3-8.1-14.1-14.2-19.4c-3-2.7-6.5-4.8-10.2-6.4
		c-3.7-1.6-7.6-2.6-11.6-3.2l0,0l0,0l-6-2.7l-0.6-0.3l0.6-0.2c15.6-4.1,31.4-7.9,47.1-11.4c15.8-3.5,31.6-6.9,47.5-10
		c7.9-1.5,15.9-3,23.9-4.3c8-1.2,16-2.5,24-3.6c8.1-0.8,16.2,1.4,23.4,4.9c7.3,3.5,14,8.1,20.3,13.2L-1073.7,24.9z M-1074.8,24
		c-6.3-5.1-13-9.7-20.3-13.2c-7.2-3.5-15.3-5.7-23.4-4.9c-8,1.1-16,2.4-24,3.6c-8,1.3-15.9,2.8-23.9,4.3
		c-15.9,3.1-31.7,6.5-47.4,10.1c-15.8,3.6-31.5,7.4-47.1,11.5l0-0.4l6,2.7l-0.1,0c4,0.5,8,1.5,11.8,3.2c3.7,1.6,7.2,3.8,10.3,6.5
		c6.2,5.3,10.8,12.3,14.4,19.6c3.5,7.4,6,15.2,7.8,23.1c1.8,7.9,3,16,3.6,24.1c0.3,4.1,0.5,8.1,0.6,12.2c0.1,4.1,0,8.1,0,12.2
		l0,24.3l0,6.1l0,3c0,0.5,0,1,0.1,1.5c0,0.2,0,0.5,0.1,0.7l0.2,0.7c0.3,0.9,0.8,1.7,1.6,2.2c0.8,0.5,1.7,0.8,2.6,0.8
		c1.9,0,3.6-1.4,4-3.3c0.2-0.4,0.2-0.9,0.2-1.4c0.1-0.5,0-1,0-1.5l0-3l0-6.1l0-12.2l-0.1-48.7c0-4.1,0.1-8.2,1.1-12.2
		c0.5-2,1.1-4,2.1-5.9c0.5-0.9,1.1-1.8,1.9-2.6c0.4-0.4,0.8-0.7,1.3-1c0.5-0.3,1-0.5,1.5-0.6c1.1-0.3,2.3-0.2,3.3,0.1
		c1,0.4,2,1,2.8,1.7c1.6,1.4,2.7,3.2,3.6,5.1c1.8,3.8,2.5,7.9,2.8,12c0.1,2.1,0.1,4.1,0.1,6.1l0,6.1l0,12.2c0,4,0,8.2,0,12.1
		c0,1,0.3,1.9,0.7,2.7c0.4,0.8,1.1,1.4,1.9,1.5c0.8,0.2,1.6-0.2,2.2-0.8c0.6-0.6,1-1.5,1.1-2.4c0.2-0.9,0.2-1.9,0.2-2.9l0-3l0-6.1
		l0-12.2l0-24.3l0-12.2l0-6.1c0-1,0-2,0-3.1c0-0.5,0.1-1.1,0.2-1.6c0.1-0.5,0.2-1,0.3-1.5c0.5-2,1.3-4,2.4-5.8
		c1-1.8,2.3-3.5,4.1-4.8c0.9-0.6,2-1.1,3.2-1.1c1.2,0,2.4,0.5,3.2,1.3c1.7,1.5,2.6,3.5,3.4,5.4c1.4,3.9,2.1,8,2.7,12
		c0.5,4.1,0.8,8.1,0.9,12.2c0.3,8.1,0.2,16.3,0.2,24.4l0.1,48.7l0,24.3l0,3c0,1,0.1,1.9,0.3,2.9c0.2,0.9,0.5,1.8,1,2.5
		c0.5,0.7,1.1,1.1,1.7,1c0.6-0.1,1.2-0.7,1.6-1.4c0.4-0.8,0.7-1.7,0.8-2.6c0.2-0.9,0.2-1.9,0.2-2.9l0-3l-0.1-97.4c0-2,0-4.1,0.2-6.2
		c0.2-2.1,0.6-4.1,1.2-6.1c1.2-4,3-7.8,5.5-11.2c2.5-3.3,5.6-6.3,9.1-8.5c1.8-1.1,3.7-2,5.7-2.8c2-0.7,4.1-1.2,6.2-1.3
		c2.1-0.1,4.4,0.1,6.4,0.9c2.1,0.8,3.9,2.2,5.3,3.9c1.3,1.8,2.3,3.8,2.7,5.9l0.2,0.8l0.1,0.8l0.2,1.6c0.1,1,0.1,2.1,0.1,3.1l0,12.2
		l0,6.1c0,0.2,0,0.5,0,0.7c0,0.2,0,0.4,0.1,0.6c0.1,0.4,0.2,0.8,0.4,1.2c0.3,0.7,0.9,1.5,1.5,1.9l0.1,0.1l0.2,0.2l-0.1-0.1l0.2,0.2
		c0.1,0,0.1,0.1,0.2,0.1l0.2,0.1c0,0,0.2,0.1,0.4,0.1l-0.3-0.1c0.1,0,0.2,0.1,0.4,0.1l-0.2,0c0.5,0.1,0.7,0,1-0.2
		c0.3-0.3,0.5-0.8,0.7-1.3c0.2-0.6,0.2-1.2,0.3-1.8c0-0.3,0-0.6,0-1l0-1.1c0.2-2.9,0.6-5.7,1.1-8.4c1-5.5,2.2-11,3.6-16.5
		c1.4-5.4,3.1-10.8,5.1-16.1c1-2.6,2.2-5.2,3.6-7.7c0.7-1.3,1.5-2.5,2.4-3.6c0.5-0.6,1-1.1,1.6-1.7c0.3-0.3,0.6-0.5,1-0.7
		c0.3-0.3,0.7-0.4,1.1-0.6l0.4-0.1c0,0,0,0,0,0l-0.5,0.1l0.3-0.1l0.3-0.1c0.1,0,0.2-0.1,0.3-0.1c0.2-0.1,0.3-0.1,0.4-0.2
		c0.1-0.1,0.2-0.2,0.2-0.2c0,0,0-0.1,0-0.1l0-0.1l0,0c0,0,0,0,0,0c0,0,0,0.1,0,0.1c0,0.1,0,0.2,0.1,0.3L-1074.8,24z"/>
</g>
<g>
	<path class="st23" d="M-1362.7,99.6c1.5-3.4,3-6.9,4.7-10.3V171c0,16-14,10-14,0c0-5.6-2.4-13.9-5.2-19.3c-0.1-0.2-0.2-0.5-0.4-0.7
		c-1.5-2.7-3.4-4-4.6-4.7c0.5-0.9,0.9-1.8,1.4-2.7c3.4-6.7,6.3-14.1,9.2-21.5C-1368.7,114.7-1365.9,107.2-1362.7,99.6z"/>
	<path class="st24" d="M-1358,89.3c-1.6,3.4-3.1,6.8-4.6,10.3c0.4-0.9,0.8-1.7,1.1-2.6c1.1-2.5,2.3-5,3.5-7.5V89.3L-1358,89.3
		l0.1-0.2L-1358,89.3z"/>
	<path class="st24" d="M-1356.8,170.2c0,1.4,0,3-0.2,4.4c-0.2,1.5-0.7,3-1.5,4.4c-0.8,1.4-2.4,2.7-4.2,2.9c-1.8,0.3-3.5-0.2-4.9-1
		c-1.4-0.8-2.5-2-3.4-3.2c-0.9-1.3-1.5-2.8-1.8-4.3c-0.2-0.8-0.2-1.5-0.2-2.3c0-0.7,0-1.3-0.1-2c-0.2-2.7-0.8-5.5-1.5-8.2
		c-0.7-2.7-1.7-5.3-2.8-7.8c-0.1-0.2-0.2-0.4-0.3-0.5c-0.1-0.2-0.2-0.5-0.4-0.7c-0.4-0.8-0.9-1.6-1.5-2.3c-0.8-1-1.8-1.9-3-2.6
		c0.1-0.2,0.2-0.4,0.3-0.5c0.5-0.9,0.9-1.8,1.4-2.7c3.4-6.7,6.3-14.1,9.2-21.5c2.9-7.4,5.8-14.9,9-22.5c-1.6,3.9-3.2,7.8-4.7,11.8
		l-4.5,11.8c-1.5,4-3,7.9-4.6,11.8c-1.5,3.7-3.2,7.4-5,11c1.1,0.7,2.1,1.5,3,2.5c0.5,0.5,0.9,1.1,1.2,1.7c0.1,0.2,0.3,0.4,0.4,0.6
		c0.3,0.5,0.5,0.9,0.8,1.4c1.3,2.6,2.4,5.3,3.2,8c0.9,2.8,1.5,5.6,1.8,8.5c0.1,0.7,0.1,1.5,0.1,2.2c0,0.6,0.1,1.3,0.2,1.9
		c0.3,1.2,0.8,2.4,1.5,3.5c0.7,1,1.6,1.9,2.7,2.5c1.1,0.6,2.2,0.9,3.3,0.7c1-0.2,1.9-0.9,2.5-1.9c0.6-1,1-2.2,1.2-3.6
		c0.2-1.3,0.3-2.6,0.2-4l0-4.2l0.1-8.5c0.1-11.3,0.4-22.7,0.6-34l0.3-16.9v-0.1l0-1.7l0.2-15.1c0-0.1,0.1-0.1,0.1-0.2l0.1,14.3
		l0,1.7l0,0.9l0.3,17c0.2,11.3,0.5,22.7,0.6,34l0.1,8.5L-1356.8,170.2z"/>
</g>
<g>
	<path class="st23" d="M-1269.4,145.9c0,4.8-9.6,4.8-9.6,0c0-4.8,2-33.9-2-36.9l-1-25c0-15.2-37-15-37,20v10c0,6-10,7-10,0V57
		c2.8-1.2,5.5-2.4,8.3-3.4c3.8-1.5,7.7-2.8,11.5-4.1c7.7-2.6,15.4-5,23.1-7.2c3-0.9,5.9-1.7,8.9-2.5l1.9,0.5c0,1.6,0,3.2,0,4.7v0.7
		c0.1,35,1.1,52.9,1.1,57.2c0,4.6,3.2,5.8,3.2,8.2L-1269.4,145.9z"/>
	<path class="st24" d="M-1269.3,143.1l-0.5-10.7l-1.1-21.4c0-0.8-0.3-1.5-0.8-2.1c-0.4-0.6-0.9-1.2-1.2-1.9s-0.7-1.3-0.9-2
		c-0.2-0.7-0.2-1.4-0.3-2.2c0-3-0.1-6-0.2-9c-0.2-6-0.3-11.9-0.4-17.9c-0.1-6-0.2-11.9-0.1-17.9l0.2-12.7v-0.7l0.1-4.5l0-0.7
		l-0.7-0.2l-0.4-0.1c-0.6,0.1-1.1,0.3-1.7,0.5c-3,0.8-5.9,1.7-8.9,2.5c-7.7,2.3-15.4,4.7-23.1,7.2c-3.8,1.3-7.7,2.6-11.5,4.1
		c-2.8,1-5.5,2.1-8.3,3.4c-0.6,0.3-1.2,0.6-1.8,0.9l0,6.5l0,0.8l-0.2,34c0,3.5,0,7,0,10.5l0,2.6c0,0.9,0,1.6,0.1,2.9
		c0.2,1.2,0.6,2.4,1.4,3.4c0.8,1,2,1.7,3.2,2.1c2.4,0.7,4.9,0.1,6.8-1.3c1-0.7,1.8-1.8,2.2-3c0.2-0.6,0.3-1.2,0.4-1.8l0-0.4v-0.3
		l0-0.7l0-5.2c0-1.7,0-3.6,0-5.2c0.1-3.4,0.5-6.7,1.5-9.9c0.9-3.2,2.4-6.2,4.4-8.7c2-2.6,4.6-4.7,7.6-6.1c2.9-1.4,6.2-2.2,9.5-2.2
		c3.2,0.1,6.6,1,8.8,3.2c1.1,1.1,1.8,2.5,2.1,4c0.1,0.4,0.1,0.8,0.1,1.2l0.1,1.3l0.2,2.6l1.2,21l0,0.3l0.2,0.2
		c0.5,0.4,0.8,1.2,1.1,2c0.2,0.8,0.4,1.7,0.6,2.6c0.3,1.7,0.4,3.5,0.6,5.3c0.2,3.5,0.2,7.1,0.2,10.7c0,3.6-0.1,7.1-0.3,10.7
		c-0.1,1.8-0.2,3.5-0.1,5.4c0,1,0.6,1.9,1.3,2.5c0.8,0.6,1.7,0.9,2.6,1.1c1.8,0.3,3.8,0,5.3-1.3c0.7-0.7,1.1-1.7,1-2.6
		L-1269.3,143.1z M-1328.8,57v0.1c4.1-1.8,8.3-3.4,12.6-5c4.3-1.5,8.6-3,12.9-4.4c4.3-1.4,8.7-2.8,13-4.1c4.3-1.3,8.7-2.5,13.1-3.8
		l0,0l0.1,0c0,0,0,0-0.1,0l1.8,0.4v-0.1l0.1,0.2l-0.1,0c0,1.5,0,3.1,0,4.6c0,0.2,0,0.4,0,0.7c0,10.1,0.1,20.2,0.4,30.3
		c0.1,6,0.3,11.9,0.5,17.9c0.1,3,0.2,6,0.3,8.9c0,0.8,0.1,1.5,0.3,2.2c0.2,0.7,0.5,1.4,0.9,2.1c0.7,1.3,2,2.4,2,3.9l1,21.4l0.5,10.7
		l0.1,2.7c0,0.9-0.3,1.7-0.9,2.3c-1.3,1.2-3.2,1.5-4.9,1.2c-0.9-0.1-1.7-0.5-2.4-1c-0.7-0.5-1.1-1.4-1.1-2.2c0-1.8,0.1-3.6,0.2-5.3
		c0.1-3.6,0.3-7.1,0.3-10.7c0-3.6,0-7.1-0.2-10.7c-0.1-1.8-0.2-3.6-0.5-5.3c-0.1-0.9-0.3-1.8-0.6-2.6c-0.3-0.8-0.5-1.7-1.2-2.3v0
		l-0.1-0.1c0,0,0,0,0.1,0.1l-0.8-21c-0.1-1.8-0.1-3.5-0.2-5.3c-0.2-1.8-1.1-3.4-2.4-4.7c-1.3-1.3-2.8-2.2-4.5-2.8
		c-1.7-0.6-3.4-0.9-5.2-1c-7.1-0.3-14.1,3.1-18.6,8.6c-2.2,2.7-3.9,5.9-4.9,9.3c-1.1,3.4-1.6,6.9-1.7,10.4c-0.1,3.5,0,7,0,10.5
		c0,0.9,0,1.7-0.3,2.5c-0.3,0.8-0.8,1.5-1.5,2c-1.3,1-3.2,1.4-4.8,0.9c-0.8-0.2-1.5-0.7-2.1-1.3c-0.5-0.6-0.8-1.5-0.9-2.3
		c-0.1-0.8,0-1.7-0.1-2.6V99.1l0-35l0-0.8v-6.1c0,0-0.1,0-0.1,0.1L-1328.8,57z"/>
</g>
<path class="st25" d="M-1074.8,24c0,0.4-0.2,0.8-0.4,1.1l-1.9,1h0c0,0,0,0,0,0c-0.2,0.1-0.4,0.1-0.6,0.2c-9.3,4.9-18.3,45.7-18.3,55
	c0,4.4-1.5,5.8-3.1,5.5c-0.1,0-0.1,0-0.2,0c-0.1,0-0.1,0-0.2,0c-0.1,0-0.1,0-0.2-0.1c-0.2-0.1-0.4-0.2-0.6-0.3
	c-0.1,0-0.2-0.1-0.3-0.2c-0.1-0.1-0.2-0.1-0.3-0.2c-0.1-0.1-0.2-0.2-0.3-0.2c-0.3-14,2.7-26.1,2.7-34.6c0-12.5-31.7-33.3-45.7-41.5
	c7.6-1.3,15.2-2.3,22.8-3.5c1-0.1,1.9-0.3,3.1-0.4l3.4-0.2c1.2-0.1,2.2,0.1,3.4,0.2c1.1,0.1,2.2,0.2,3.3,0.4c4.3,0.9,8.4,2.2,12.2,4
	c7.7,3.5,14.5,8.3,20.8,13.3C-1075,23.8-1074.9,23.9-1074.8,24z"/>
<text transform="matrix(1 0 0 1 -1434.3779 577.6777)" style="font-family:'GothamBlack'; font-size:102px;">Tartiflette</text>
<text transform="matrix(1 0 0 1 -1754.9995 818.0127)" style="font-family:'GothamBlack'; font-size:107.4379px;">Tartiflette</text>
<g>
	<g>
		
			<image style="overflow:visible;opacity:0.15;" width="539" height="478" xlink:href="2096380F0AE192F0.png"  transform="matrix(1 0 0 1 -662 0)">
		</image>
		<g>
			<radialGradient id="SVGID_6_" cx="-392.2488" cy="239.0331" r="245.2913" gradientUnits="userSpaceOnUse">
				<stop  offset="0" style="stop-color:#F9CF81"/>
				<stop  offset="0.5851" style="stop-color:#F9CF7F"/>
				<stop  offset="0.7955" style="stop-color:#FBCE78"/>
				<stop  offset="0.9453" style="stop-color:#FECD6D"/>
				<stop  offset="1" style="stop-color:#FFCC66"/>
			</radialGradient>
			<path class="st26" d="M-132.9,338c-7.1,45.9-102.4,134.2-194.3,130.7c-50.4-1.9-84.8-14.5-121.9-27.2
				c-30.6-10.4-63-21-107.7-25.8c-98.9-10.6-95.4-109.5-95.4-148.3c0-38.9,35.3-91.9,49.4-113c10-15,18.3-46.1,29.8-67.9
				c0.2-0.3,0.4-0.7,0.6-1c0.2-0.4,0.4-0.7,0.6-1.1c4.4-8,9.3-14.5,15-18.3c19-12.7,126.7-41.1,194.3-53.1
				c7.6-1.3,14.7-2.5,21.1-3.4c35.2-4.9,88.2,60.7,117.9,108.1c0,0,0.1,0.1,0.1,0.1c0,0,0.1,0.1,0.1,0.1c9.3,14.9,16.4,28,19.7,36.5
				C-189.4,189.7-125.8,292.1-132.9,338z"/>
		</g>
	</g>
	<path class="st2" d="M-569.4,352.3c19.3-9.6,24.1-12,38.5-4.8c14.4,7.2,38.5,26.5,31.3,31.3s-24.1,31.3-69.8,0
		C-615.2,347.5-579.1,357.1-569.4,352.3z"/>
	<g>
		<path class="st3" d="M-302,314.4c0,23.6-8.2,45.2-21.9,62.3c-17.7-13.3-49.7-35.1-68.5-35.1c-27.1,0-13.6,0-22.6,0
			c-6.3,0-45.3,15.3-68.5,29.1c-11-16-17.4-35.4-17.4-56.2c0-40.4,24.1-26.3,58.8-15.9v22.6c0,3.8,3.1,6.9,6.9,6.9h13.4
			c3.8,0,6.9-3.1,6.9-6.9v-16.6c4.4,0.6,9,0.9,13.6,0.9s9.1-0.3,13.6-0.9v16.6c0,3.8,3.1,6.9,6.9,6.9h13.4c3.8,0,6.9-3.1,6.9-6.9
			v-22.6C-326.1,288.1-302,274-302,314.4z"/>
		<path class="st4" d="M-415,304.4v16.6c0,3.8-3.1,6.9-6.9,6.9h-13.4c-3.8,0-6.9-3.1-6.9-6.9v-22.6
			C-433.7,301-424.6,303.3-415,304.4z"/>
		<path class="st4" d="M-360.8,298.5v22.6c0,3.8-3.1,6.9-6.9,6.9H-381c-3.8,0-6.9-3.1-6.9-6.9v-16.6
			C-378.4,303.3-369.2,301-360.8,298.5z"/>
		<linearGradient id="SVGID_7_" gradientUnits="userSpaceOnUse" x1="-403.6972" y1="413.8415" x2="-403.6972" y2="341.5074">
			<stop  offset="0" style="stop-color:#EF5830"/>
			<stop  offset="0.3917" style="stop-color:#ED5830"/>
			<stop  offset="0.5328" style="stop-color:#E65630"/>
			<stop  offset="0.6334" style="stop-color:#DB532F"/>
			<stop  offset="0.7147" style="stop-color:#CA4F2E"/>
			<stop  offset="0.7845" style="stop-color:#B44A2E"/>
			<stop  offset="0.8461" style="stop-color:#98432D"/>
			<stop  offset="0.9019" style="stop-color:#783B2B"/>
			<stop  offset="0.9515" style="stop-color:#54332A"/>
			<stop  offset="0.9973" style="stop-color:#2B2928"/>
			<stop  offset="1" style="stop-color:#282828"/>
		</linearGradient>
		<path class="st27" d="M-323.9,376.6c-18.2,22.7-46.2,37.2-77.6,37.2c-34.1,0-64.2-17.1-82.1-43.2c23.2-13.8,62.2-29.1,68.5-29.1
			c9,0-4.5,0,22.6,0C-373.6,341.5-341.6,363.3-323.9,376.6z"/>
		<g>
			<path class="st6" d="M-403.7,393.5c-0.4-2.8-0.5-5.5-0.5-8.1c0-2.7,0.1-5.3,0.2-7.9l0.4-7.7c0.1-2.6,0.3-5.1,0-7.9
				c0.5,0.5,0.9,1.1,1.3,1.7c0.4,0.6,0.7,1.2,1,1.9c0.5,1.3,1,2.7,1.2,4c0.6,2.7,0.7,5.5,0.6,8.3c-0.1,2.7-0.5,5.4-1.2,8.1
				C-401.4,388.4-402.3,391-403.7,393.5z"/>
		</g>
	</g>
	<path class="st3" d="M-469.5,156.9"/>
	<path class="st2" d="M-358.7,42.8c-21.3,3-24.1,7.2-28.9,26.5s31.3,4.8,33.7,9.6c2.4,4.8,16.9-7.2,16.9-12
		C-337,62.1-341.9,40.4-358.7,42.8z"/>
	<g>
		<g>
			<path class="st7" d="M-505.8,136.6c-2.7,0.9-5.6,1.7-8.4,2.6c-4.1,1.3-8.2,2.6-12.2,3.8l0,0c-8.7,2.8-16.7,5.3-21.9,7
				c-3.7,1.2-5.9,1.9-5.9,1.9c-1.9,0.5-3.8-0.6-4.3-2.5l-6-22.5c-0.5-1.9,0.6-3.8,2.5-4.3c0,0,1.2-0.1,3-0.3c1,2.2,7.2,1.2,13.6,1.5
				c2.5,0.1,10.1-3.4,20.1-8.5c1.4-0.4,3-0.9,4.6-1.4C-511.1,122.6-508.6,131.2-505.8,136.6z"/>
			<path class="st8" d="M-451.7,110.5l2.6,9.5c0.5,1.9-0.6,3.8-2.5,4.3c0,0-12.9,1.5-26.5,4.5c-8-5.8-25.1-12.4-27.6-19.5
				c5.8-1.8,11.9-3.7,17.7-5.5c12.4,4.5,27.2,13.9,32,11.7C-454.4,114.8-452.9,113-451.7,110.5z"/>
			<path class="st8" d="M-514.2,139.2c-4.1,1.3-8.2,2.6-12.2,3.8l0,0c-4.5-1.7-6.7-2.5-8.6-2c-2.7,0.7-2.1-8,0.5-8.7
				c2.7-0.7,2-3.4,6.6-7.5s6,1.2,10.9,8.5C-515.7,135.4-514.7,137.4-514.2,139.2z"/>
		</g>
		<path class="st9" d="M-455.2,97.6l3.5,13c-1.2,2.5-2.7,4.3-4.4,5.1c-4.8,2.2-19.6-7.2-32-11.7c15.4-4.8,28.5-8.9,28.5-8.9
			C-457.6,94.6-455.7,95.7-455.2,97.6z"/>
		<path class="st10" d="M-525.2,115.3c-10,5.1-17.7,8.6-20.1,8.5c-6.5-0.4-12.6,0.7-13.6-1.5c2.4-0.3,6.1-0.7,10.1-1.3l0,0
			c4.5-0.7,9.3-1.5,13.4-2.6c1.4-0.4,3.8-1.1,6.9-2C-527.4,116-526.3,115.7-525.2,115.3z"/>
		<path class="st11" d="M-478.2,128.9l-2,0.5c-2,0.5-4.1,1-6.1,1.5c-1.8,0.5-4.1,1.1-6.7,1.9c-2.8,0.8-6,1.8-9.4,2.8
			c-1.1,0.3-2.2,0.7-3.4,1.1c-2.8-5.4-5.3-14-14.8-22.7c4.5-1.3,9.5-2.9,14.8-4.5C-503.3,116.5-486.2,123.1-478.2,128.9z"/>
	</g>
	<path class="st12" d="M-132.9,338c-7.1,45.9-102.4,134.2-194.3,130.7c-50.4-1.9-84.8-14.5-121.9-27.2c53.1-0.5,108.6-8.8,166.2-17
		c84.3-12,16.9-118,38.5-149.3s-36.1-113.2-62.6-144.5c-26.5-31.3-14.4-62.6-14.4-79.5c0-13.5-29.4-31.7-41.1-38.3
		c7.6-1.3,14.7-2.5,21.1-3.4c46.4-6.4,123.6,109.5,137.8,144.8C-189.4,189.7-125.8,292.1-132.9,338z"/>
	<path class="st2" d="M-201.7,346.2c18-4.5,16.2-13,13-22.7s-26-34.1-32.5-32.5c-6.5,1.6-13,27.6-4.9,32.5S-208.2,347.8-201.7,346.2
		z"/>
	<g>
		<radialGradient id="SVGID_8_" cx="-494.2452" cy="206.7435" r="53.2577" gradientUnits="userSpaceOnUse">
			<stop  offset="0" style="stop-color:#FFFFFF"/>
			<stop  offset="0.821" style="stop-color:#FFFDFD"/>
			<stop  offset="1" style="stop-color:#FFFAFA"/>
		</radialGradient>
		<path class="st28" d="M-435.6,218.2c0-32.4-26.3-58.7-58.7-58.7s-58.7,26.3-58.7,58.7s26.3,35.8,58.7,35.8
			S-435.6,250.6-435.6,218.2z"/>
		<path class="st3" d="M-447.9,198.7c0,6.8-5.5,12.3-12.3,12.3s-12.3-5.5-12.3-12.3c0-6.8,5.5-12.3,12.3-12.3c2.3,0,4.4,0.6,6.2,1.7
			c-2,0.8-3.5,2.8-3.5,5.1c0,3,2.5,5.5,5.5,5.5c1.6,0,3-0.7,4-1.7C-447.9,197.5-447.9,198-447.9,198.7z"/>
	</g>
	<radialGradient id="SVGID_9_" cx="-308.6734" cy="206.7435" r="53.2577" gradientUnits="userSpaceOnUse">
		<stop  offset="0" style="stop-color:#FFFFFF"/>
		<stop  offset="0.821" style="stop-color:#FFFDFD"/>
		<stop  offset="1" style="stop-color:#FFFAFA"/>
	</radialGradient>
	<path class="st29" d="M-250,218.2c0-32.4-26.3-58.7-58.7-58.7s-58.7,26.3-58.7,58.7s26.3,35.8,58.7,35.8S-250,250.6-250,218.2z"/>
	<path class="st3" d="M-327.8,198.7c0,6.8-5.5,12.3-12.3,12.3s-12.3-5.5-12.3-12.3c0-6.8,5.5-12.3,12.3-12.3c2.3,0,4.4,0.6,6.2,1.7
		c-2,0.8-3.5,2.8-3.5,5.1c0,3,2.5,5.5,5.5,5.5c1.6,0,3-0.7,4-1.7C-327.8,197.5-327.8,198-327.8,198.7z"/>
	<path class="st17" d="M-591,328"/>
	<g>
		<g>
			<path class="st18" d="M-303.2,132.9c-2.8-0.7-5.7-1.4-8.6-2.2c-4.1-1-8.3-2.1-12.4-3.1l0,0c-8.9-2.2-17-4.1-22.3-5.4
				c-3.7-0.9-6-1.4-6-1.4c-1.9-0.5-2.9-2.5-2.4-4.4l6.5-22.4c0.5-1.9,2.5-2.9,4.4-2.4c0,0,1,0.5,2.7,1.3c-0.3,2.4,5.5,4.7,10.9,8.4
				c2,1.4,10.4,2.4,21.6,3.2c1.4,0.4,3,0.8,4.7,1.2C-300.5,118.1-302.8,126.7-303.2,132.9z"/>
			<path class="st19" d="M-243.5,138.6l-2.8,9.5c-0.5,1.9-2.5,2.9-4.4,2.4c0,0-11.8-5.5-25-10c-3.8-9.1-15-23.7-13.5-31
				c5.9,1.5,12.1,3,18,4.5c8.3,10.2,16,26,21.3,26.6C-248,140.9-245.8,140.1-243.5,138.6z"/>
			<path class="st20" d="M-311.8,130.7c-4.1-1-8.3-2.1-12.4-3.1l0,0c-3-3.7-4.4-5.6-6.3-6.2c-2.7-0.8,2.3-8,5-7.2s3.4-1.9,9.5-3
				s4.5,4.2,4.9,12.9C-311.1,126.6-311.3,128.9-311.8,130.7z"/>
		</g>
		<path class="st21" d="M-239.7,125.8l-3.8,12.9c-2.3,1.5-4.5,2.3-6.4,2.1c-5.3-0.6-13-16.3-21.3-26.6c15.7,3.9,29,7.3,29,7.3
			C-240.3,121.9-239.2,123.9-239.7,125.8z"/>
		<path class="st22" d="M-308.8,104.6c-11.2-0.8-19.6-1.8-21.6-3.2c-5.3-3.7-11.1-6-10.9-8.4c2.2,1,5.6,2.6,9.4,4.1l0,0
			c4.2,1.8,8.8,3.5,12.9,4.7c1.4,0.4,3.8,1.1,6.9,1.9C-311,104-309.9,104.3-308.8,104.6z"/>
		<path class="st10" d="M-275.6,140.6l-2-0.7c-2-0.6-4-1.3-6-1.9c-1.8-0.5-4.1-1.2-6.7-1.9c-2.8-0.7-6-1.6-9.5-2.5
			c-1.1-0.3-2.3-0.6-3.5-0.9c0.4-6.1,2.7-14.8-0.9-27.1c4.5,1.2,9.7,2.5,15,3.8C-290.7,116.9-279.4,131.5-275.6,140.6z"/>
	</g>
	<g>
		<path class="st23" d="M-223.4,117.6c-29.7-47.4-82.6-113-117.9-108.1c-6.4,0.9-13.5,2-21.1,3.4c-67.6,12-175.3,40.4-194.3,53.1
			c-5.7,3.8-10.6,10.3-15,18.3c-0.2,0.4-0.4,0.7-0.6,1.1c0.3,0,0.5,0,0.8,0c61.7,3.6,82.8,26.8,71.5,62.5c-6,19,28,20,21,0
			c-4.7-13.3-9.1-26.1,10-47c21-23,45-1.9,45-1.9c33,27.9,19.7,54.1,15,71.9c-5,19,37,19,30-1c-5.8-16.5-7-16-4-28
			c6.3-25.2,75-46,142-28c4.6,1.2,10.4,2.5,17,3.6c0.2,0,0.4,0.1,0.7,0.1C-223.4,117.7-223.4,117.6-223.4,117.6z"/>
		<path class="st24" d="M-223.4,117.7c0,0-0.1-0.1-0.1-0.1l-2.3-0.4l-4.6-0.9c-3.1-0.6-6.1-1.3-9.1-2.1c-6-1.6-12.1-3-18.3-4.1
			c-12.3-2.2-24.8-3.2-37.3-3.1c-12.5,0.1-25,1.4-37.3,3.9c-6.1,1.3-12.2,3-18.1,5.1c-5.9,2.1-11.7,4.7-17,7.9
			c-2.7,1.6-5.3,3.5-7.6,5.6c-2.3,2.1-4.5,4.5-6.1,7.2c-0.8,1.4-1.5,2.8-2,4.3c-0.5,1.6-0.8,3.1-1.1,4.6c-0.3,1.5-0.6,3.1-0.7,4.7
			c-0.1,1.6,0.1,3.2,0.4,4.8c0.7,3.1,1.9,6,2.9,9l1.6,4.4c0.5,1.5,1.1,2.9,1.3,4.4c0.2,1.5,0.1,3-0.4,4.4c-0.5,1.4-1.4,2.6-2.5,3.6
			c-2.2,2-5.2,3-8.2,3.5c-3,0.5-6.1,0.3-9.1-0.3c-2.9-0.7-5.8-2-7.8-4.3c-1-1.1-1.6-2.5-1.9-3.9c-0.3-1.4-0.2-2.9,0.2-4.4
			c0.8-3,1.7-6,2.6-9c1.8-6,3.4-12.1,3.9-18.4c0.5-6.3-0.1-12.7-2.1-18.7c-1-3-2.3-5.9-3.9-8.7c-1.6-2.7-3.4-5.3-5.4-7.8
			c-1-1.2-2-2.4-3.1-3.6c-0.6-0.6-1.1-1.1-1.6-1.7l-1.7-1.7c-1.1-1.1-2.3-2.1-3.5-3.2c-1.2-1.1-2.5-2-3.8-2.9
			c-5.3-3.4-11.4-5.9-17.8-6.3c-3.2-0.2-6.4,0.1-9.5,1c-3.1,0.9-6,2.3-8.6,4.2c-2.6,1.8-5,4-7.1,6.4c-2.1,2.3-4.1,4.8-5.9,7.4
			c-3.6,5.2-6.6,11-7.5,17.4c-0.4,3.2-0.4,6.4,0.1,9.6c0.5,3.2,1.4,6.2,2.4,9.2c0.5,1.5,1,3,1.5,4.4c0.4,1.4,0.7,2.9,0.6,4.3
			c0,1.4-0.4,2.8-1.1,4c-0.7,1.2-1.8,2.2-3,2.9c-2.5,1.4-5.6,1.7-8.5,1.2c-2.9-0.6-5.6-2.1-7-4.6c-1.5-2.4-1.5-5.5-0.6-8.3
			c0.9-3,1.8-6.1,2.3-9.2c1.1-6.2,1.1-12.8-0.6-19c-0.9-3.1-2.2-6.1-3.9-8.8c-1.7-2.7-3.8-5.2-6.1-7.4c-4.7-4.4-10.2-7.7-16-10.2
			c-5.8-2.5-11.9-4.3-18-5.7c-6.1-1.4-12.4-2.3-18.6-3c-3.1-0.3-6.2-0.6-9.4-0.8c-0.7,0-1.5-0.1-2.2-0.2c-0.2,0.4-0.4,0.7-0.6,1.1
			c-0.2,0.4-0.4,0.7-0.6,1c1.1,0.1,2.2,0.1,3.2,0.2c3.1,0.2,6.2,0.5,9.3,0.8c6.2,0.7,12.3,1.6,18.4,2.9c6,1.3,12,3.1,17.7,5.5
			c5.7,2.4,11,5.6,15.5,9.8c2.2,2.1,4.2,4.4,5.8,7c1.6,2.6,2.9,5.4,3.7,8.3c1.7,5.9,1.6,12.1,0.6,18.2c-0.5,3-1.3,6-2.2,9
			c-0.5,1.6-0.7,3.2-0.6,4.9c0.1,1.7,0.6,3.4,1.5,4.8c1.8,3,5,4.7,8.2,5.4c3.2,0.6,6.7,0.3,9.7-1.4c1.5-0.8,2.8-2,3.7-3.5
			c0.9-1.5,1.3-3.2,1.3-4.9c0.1-1.7-0.2-3.3-0.7-4.9c-0.5-1.5-1-3-1.5-4.5c-1-2.9-1.8-5.9-2.3-8.9c-0.5-3-0.6-6.1-0.1-9.1
			c0.8-6,3.6-11.7,7.2-16.7c1.8-2.5,3.7-4.9,5.8-7.2c2-2.3,4.3-4.4,6.8-6.2s5.2-3.1,8.2-4c2.9-0.9,6-1.2,9-1
			c6.1,0.4,12,2.7,17.1,6.1c1.3,0.8,2.5,1.7,3.7,2.7c1.1,1,2.4,2,3.5,3.1l1.7,1.6c0.6,0.5,1.1,1.1,1.6,1.7c1.1,1.1,2.1,2.3,3.1,3.5
			c1.9,2.4,3.7,4.9,5.3,7.6c1.5,2.7,2.8,5.5,3.8,8.4c2,5.8,2.6,12.1,2.1,18.2c-0.5,6.2-2,12.2-3.8,18.2c-0.9,3-1.8,6-2.6,9
			c-0.4,1.6-0.5,3.2-0.2,4.9c0.3,1.6,1.1,3.2,2.2,4.4c2.2,2.5,5.3,3.9,8.4,4.6c3.1,0.7,6.4,0.8,9.5,0.3c3.1-0.5,6.3-1.6,8.8-3.8
			c1.2-1.1,2.2-2.5,2.8-4c0.6-1.6,0.6-3.3,0.4-4.9c-0.2-1.6-0.8-3.1-1.3-4.6l-1.6-4.4c-1.1-2.9-2.2-5.8-2.9-8.8
			c-0.3-1.5-0.5-3-0.4-4.5c0.1-1.5,0.4-3,0.7-4.6c0.3-1.5,0.7-3.1,1.1-4.5c0.4-1.5,1.1-2.8,1.9-4.2c1.6-2.6,3.7-5,6-7
			c2.3-2,4.8-3.9,7.5-5.5c5.3-3.2,11-5.8,16.8-7.9c5.9-2.1,11.9-3.8,18-5.1c12.2-2.6,24.6-3.9,37.1-4.1s25,0.8,37.3,3
			c6.2,1.1,12.2,2.4,18.3,4.1c3,0.8,6.1,1.4,9.2,2c2.4,0.5,4.7,0.9,7.1,1.3C-223.3,117.8-223.3,117.8-223.4,117.7z"/>
	</g>
	<g>
		<path class="st23" d="M-386.4,62.6c0,12.7-1.9,12.7-3.9,17.6c-4.2,10.4,19.8,10.4,16.6,0c-1.9-6.2-5.9-26.3-3.9-35.1"/>
		<path class="st24" d="M-386.3,62.6c0,3.4,0.1,6.8-0.6,10.2c-0.5,3.5-3.1,6.3-3.4,9.4c-0.1,0.8,0.1,1.5,0.5,2.1
			c0.4,0.6,0.9,1.2,1.6,1.6c1.3,0.8,2.9,1.2,4.5,1.4c1.6,0.1,3.2,0,4.8-0.5c1.5-0.4,3-1.2,3.9-2.4c0.9-1.1,1-2.7,0.5-4.1
			c-0.5-1.6-1-3.3-1.4-4.9c-0.8-3.3-1.5-6.6-2-10c-0.5-3.4-0.8-6.8-0.9-10.2c0-3.4,0-6.9,1-10.2l0.2,0c-0.2,1.7-0.2,3.3-0.1,5
			c0.1,1.7,0.2,3.3,0.4,5c0.4,3.3,0.9,6.7,1.4,10c0.6,3.3,1.1,6.6,1.8,9.9c0.3,1.6,0.7,3.3,1.1,4.9c0.3,0.9,0.4,1.9,0.3,2.8
			c-0.1,1-0.5,1.9-1.2,2.7c-1.2,1.5-3,2.3-4.7,2.8c-1.7,0.4-3.5,0.6-5.3,0.4c-1.7-0.2-3.5-0.7-5-1.7c-0.8-0.5-1.4-1.2-1.9-2
			c-0.5-0.8-0.6-1.8-0.5-2.7c0.1-0.9,0.4-1.8,0.8-2.6c0.4-0.8,0.8-1.5,1.2-2.3c0.4-0.7,0.8-1.5,1.1-2.2c0.3-0.8,0.6-1.5,0.8-2.4
			c0.8-3.2,0.9-6.7,1-10H-386.3z"/>
	</g>
</g>
<g>
	<g>
		<image style="overflow:visible;opacity:0.15;" width="539" height="478" xlink:href="2096380F0AE192F3.png" >
		</image>
		<g>
			<radialGradient id="SVGID_10_" cx="269.7512" cy="239.0331" r="245.2913" gradientUnits="userSpaceOnUse">
				<stop  offset="0" style="stop-color:#F9CF81"/>
				<stop  offset="0.5851" style="stop-color:#F9CF7F"/>
				<stop  offset="0.7955" style="stop-color:#FBCE78"/>
				<stop  offset="0.9453" style="stop-color:#FECD6D"/>
				<stop  offset="1" style="stop-color:#FFCC66"/>
			</radialGradient>
			<path class="st30" d="M529.1,338c-7.1,45.9-102.4,134.2-194.3,130.7c-50.4-1.9-84.8-14.5-121.9-27.2c-30.6-10.4-63-21-107.7-25.8
				C6.3,405.1,9.9,306.2,9.9,267.4c0-38.9,35.3-91.9,49.4-113c10-15,18.3-46.1,29.8-67.9c0.2-0.3,0.4-0.7,0.6-1
				c0.2-0.4,0.4-0.7,0.6-1.1c4.4-8,9.3-14.5,15-18.3c19-12.7,126.7-41.1,194.3-53.1c7.6-1.3,14.7-2.5,21.1-3.4
				c35.2-4.9,88.2,60.7,117.9,108.1c0,0,0.1,0.1,0.1,0.1c0,0,0.1,0.1,0.1,0.1c9.3,14.9,16.4,28,19.7,36.5
				C472.6,189.7,536.2,292.1,529.1,338z"/>
		</g>
	</g>
	<path class="st2" d="M92.6,352.3c19.3-9.6,24.1-12,38.5-4.8s38.5,26.5,31.3,31.3c-7.2,4.8-24.1,31.3-69.8,0S82.9,357.1,92.6,352.3z
		"/>
	<g>
		<path class="st3" d="M360,314.4c0,23.6-8.2,45.2-21.9,62.3c-17.7-13.3-49.7-35.1-68.5-35.1c-27.1,0-13.6,0-22.6,0
			c-6.3,0-45.3,15.3-68.5,29.1c-11-16-17.4-35.4-17.4-56.2c0-40.4,24.1-26.3,58.8-15.9v22.6c0,3.8,3.1,6.9,6.9,6.9h13.4
			c3.8,0,6.9-3.1,6.9-6.9v-16.6c4.4,0.6,9,0.9,13.6,0.9s9.1-0.3,13.6-0.9v16.6c0,3.8,3.1,6.9,6.9,6.9h13.4c3.8,0,6.9-3.1,6.9-6.9
			v-22.6C335.9,288.1,360,274,360,314.4z"/>
		<path class="st4" d="M247,304.4v16.6c0,3.8-3.1,6.9-6.9,6.9h-13.4c-3.8,0-6.9-3.1-6.9-6.9v-22.6C228.3,301,237.4,303.3,247,304.4z
			"/>
		<path class="st4" d="M301.2,298.5v22.6c0,3.8-3.1,6.9-6.9,6.9H281c-3.8,0-6.9-3.1-6.9-6.9v-16.6
			C283.6,303.3,292.8,301,301.2,298.5z"/>
		<linearGradient id="SVGID_11_" gradientUnits="userSpaceOnUse" x1="258.3028" y1="413.8415" x2="258.3028" y2="341.5074">
			<stop  offset="0" style="stop-color:#EF5830"/>
			<stop  offset="0.3917" style="stop-color:#ED5830"/>
			<stop  offset="0.5328" style="stop-color:#E65630"/>
			<stop  offset="0.6334" style="stop-color:#DB532F"/>
			<stop  offset="0.7147" style="stop-color:#CA4F2E"/>
			<stop  offset="0.7845" style="stop-color:#B44A2E"/>
			<stop  offset="0.8461" style="stop-color:#98432D"/>
			<stop  offset="0.9019" style="stop-color:#783B2B"/>
			<stop  offset="0.9515" style="stop-color:#54332A"/>
			<stop  offset="0.9973" style="stop-color:#2B2928"/>
			<stop  offset="1" style="stop-color:#282828"/>
		</linearGradient>
		<path class="st31" d="M338.1,376.6c-18.2,22.7-46.2,37.2-77.6,37.2c-34.1,0-64.2-17.1-82.1-43.2c23.2-13.8,62.2-29.1,68.5-29.1
			c9,0-4.5,0,22.6,0C288.4,341.5,320.4,363.3,338.1,376.6z"/>
		<g>
			<path class="st6" d="M258.3,393.5c-0.4-2.8-0.5-5.5-0.5-8.1c0-2.7,0.1-5.3,0.2-7.9l0.4-7.7c0.1-2.6,0.3-5.1,0-7.9
				c0.5,0.5,0.9,1.1,1.3,1.7c0.4,0.6,0.7,1.2,1,1.9c0.5,1.3,1,2.7,1.2,4c0.6,2.7,0.7,5.5,0.6,8.3c-0.1,2.7-0.5,5.4-1.2,8.1
				C260.6,388.4,259.7,391,258.3,393.5z"/>
		</g>
	</g>
	<path class="st3" d="M192.5,156.9"/>
	<path class="st2" d="M303.3,42.8c-21.3,3-24.1,7.2-28.9,26.5s31.3,4.8,33.7,9.6c2.4,4.8,16.9-7.2,16.9-12
		C325,62.1,320.1,40.4,303.3,42.8z"/>
	<g>
		<g>
			<path class="st7" d="M156.2,136.6c-2.7,0.9-5.6,1.7-8.4,2.6c-4.1,1.3-8.2,2.6-12.2,3.8l0,0c-8.7,2.8-16.7,5.3-21.9,7
				c-3.7,1.2-5.9,1.9-5.9,1.9c-1.9,0.5-3.8-0.6-4.3-2.5l-6-22.5c-0.5-1.9,0.6-3.8,2.5-4.3c0,0,1.2-0.1,3-0.3c1,2.2,7.2,1.2,13.6,1.5
				c2.5,0.1,10.1-3.4,20.1-8.5c1.4-0.4,3-0.9,4.6-1.4C150.9,122.6,153.4,131.2,156.2,136.6z"/>
			<path class="st8" d="M210.3,110.5l2.6,9.5c0.5,1.9-0.6,3.8-2.5,4.3c0,0-12.9,1.5-26.5,4.5c-8-5.8-25.1-12.4-27.6-19.5
				c5.8-1.8,11.9-3.7,17.7-5.5c12.4,4.5,27.2,13.9,32,11.7C207.6,114.8,209.1,113,210.3,110.5z"/>
			<path class="st8" d="M147.8,139.2c-4.1,1.3-8.2,2.6-12.2,3.8l0,0c-4.5-1.7-6.7-2.5-8.6-2c-2.7,0.7-2.1-8,0.5-8.7
				c2.7-0.7,2-3.4,6.6-7.5s6,1.2,10.9,8.5C146.3,135.4,147.3,137.4,147.8,139.2z"/>
		</g>
		<path class="st9" d="M206.8,97.6l3.5,13c-1.2,2.5-2.7,4.3-4.4,5.1c-4.8,2.2-19.6-7.2-32-11.7c15.4-4.8,28.5-8.9,28.5-8.9
			C204.4,94.6,206.3,95.7,206.8,97.6z"/>
		<path class="st10" d="M136.8,115.3c-10,5.1-17.7,8.6-20.1,8.5c-6.5-0.4-12.6,0.7-13.6-1.5c2.4-0.3,6.1-0.7,10.1-1.3l0,0
			c4.5-0.7,9.3-1.5,13.4-2.6c1.4-0.4,3.8-1.1,6.9-2C134.6,116,135.7,115.7,136.8,115.3z"/>
		<path class="st11" d="M183.8,128.9l-2,0.5c-2,0.5-4.1,1-6.1,1.5c-1.8,0.5-4.1,1.1-6.7,1.9c-2.8,0.8-6,1.8-9.4,2.8
			c-1.1,0.3-2.2,0.7-3.4,1.1c-2.8-5.4-5.3-14-14.8-22.7c4.5-1.3,9.5-2.9,14.8-4.5C158.7,116.5,175.8,123.1,183.8,128.9z"/>
	</g>
	<path class="st12" d="M529.1,338c-7.1,45.9-102.4,134.2-194.3,130.7c-50.4-1.9-84.8-14.5-121.9-27.2c53.1-0.5,108.6-8.8,166.2-17
		c84.3-12,16.9-118,38.5-149.3S381.5,162,355.1,130.7c-26.5-31.3-14.4-62.6-14.4-79.5c0-13.5-29.4-31.7-41.1-38.3
		c7.6-1.3,14.7-2.5,21.1-3.4C367.1,3.1,444.3,119,458.5,154.3C472.6,189.7,536.2,292.1,529.1,338z"/>
	<path class="st2" d="M460.3,346.2c18-4.5,16.2-13,13-22.7c-3.2-9.7-26-34.1-32.5-32.5c-6.5,1.6-13,27.6-4.9,32.5
		C444,328.3,453.8,347.8,460.3,346.2z"/>
	<g>
		<radialGradient id="SVGID_12_" cx="167.7548" cy="206.7435" r="53.2577" gradientUnits="userSpaceOnUse">
			<stop  offset="0" style="stop-color:#FFFFFF"/>
			<stop  offset="0.821" style="stop-color:#FFFDFD"/>
			<stop  offset="1" style="stop-color:#FFFAFA"/>
		</radialGradient>
		<path class="st32" d="M226.4,218.2c0-32.4-26.3-58.7-58.7-58.7s-58.7,26.3-58.7,58.7s26.3,35.8,58.7,35.8S226.4,250.6,226.4,218.2
			z"/>
		<path class="st3" d="M179.1,208.7c0,6.8-5.5,12.3-12.3,12.3c-6.8,0-12.3-5.5-12.3-12.3c0-6.8,5.5-12.3,12.3-12.3
			c2.3,0,4.4,0.6,6.2,1.7c-2,0.8-3.5,2.8-3.5,5.1c0,3,2.5,5.5,5.5,5.5c1.6,0,3-0.7,4-1.7C179.1,207.5,179.1,208,179.1,208.7z"/>
	</g>
	<radialGradient id="SVGID_13_" cx="353.3266" cy="206.7435" r="53.2577" gradientUnits="userSpaceOnUse">
		<stop  offset="0" style="stop-color:#FFFFFF"/>
		<stop  offset="0.821" style="stop-color:#FFFDFD"/>
		<stop  offset="1" style="stop-color:#FFFAFA"/>
	</radialGradient>
	<path class="st33" d="M412,218.2c0-32.4-26.3-58.7-58.7-58.7s-58.7,26.3-58.7,58.7s26.3,35.8,58.7,35.8S412,250.6,412,218.2z"/>
	<path class="st3" d="M368.2,208.7c0,6.8-5.5,12.3-12.3,12.3s-12.3-5.5-12.3-12.3c0-6.8,5.5-12.3,12.3-12.3c2.3,0,4.4,0.6,6.2,1.7
		c-2,0.8-3.5,2.8-3.5,5.1c0,3,2.5,5.5,5.5,5.5c1.6,0,3-0.7,4-1.7C368.2,207.5,368.2,208,368.2,208.7z"/>
	<path class="st17" d="M71,328"/>
	<g>
		<g>
			<path class="st18" d="M358.8,132.9c-2.8-0.7-5.7-1.4-8.6-2.2c-4.1-1-8.3-2.1-12.4-3.1l0,0c-8.9-2.2-17-4.1-22.3-5.4
				c-3.7-0.9-6-1.4-6-1.4c-1.9-0.5-2.9-2.5-2.4-4.4l6.5-22.4c0.5-1.9,2.5-2.9,4.4-2.4c0,0,1,0.5,2.7,1.3c-0.3,2.4,5.5,4.7,10.9,8.4
				c2,1.4,10.4,2.4,21.6,3.2c1.4,0.4,3,0.8,4.7,1.2C361.5,118.1,359.2,126.7,358.8,132.9z"/>
			<path class="st19" d="M418.5,138.6l-2.8,9.5c-0.5,1.9-2.5,2.9-4.4,2.4c0,0-11.8-5.5-25-10c-3.8-9.1-15-23.7-13.5-31
				c5.9,1.5,12.1,3,18,4.5c8.3,10.2,16,26,21.3,26.6C414,140.9,416.2,140.1,418.5,138.6z"/>
			<path class="st20" d="M350.2,130.7c-4.1-1-8.3-2.1-12.4-3.1l0,0c-3-3.7-4.4-5.6-6.3-6.2c-2.7-0.8,2.3-8,5-7.2s3.4-1.9,9.5-3
				s4.5,4.2,4.9,12.9C350.9,126.6,350.7,128.9,350.2,130.7z"/>
		</g>
		<path class="st21" d="M422.3,125.8l-3.8,12.9c-2.3,1.5-4.5,2.3-6.4,2.1c-5.3-0.6-13-16.3-21.3-26.6c15.7,3.9,29,7.3,29,7.3
			C421.7,121.9,422.8,123.9,422.3,125.8z"/>
		<path class="st22" d="M353.2,104.6c-11.2-0.8-19.6-1.8-21.6-3.2c-5.3-3.7-11.1-6-10.9-8.4c2.2,1,5.6,2.6,9.4,4.1l0,0
			c4.2,1.8,8.8,3.5,12.9,4.7c1.4,0.4,3.8,1.1,6.9,1.9C351,104,352.1,104.3,353.2,104.6z"/>
		<path class="st10" d="M386.4,140.6l-2-0.7c-2-0.6-4-1.3-6-1.9c-1.8-0.5-4.1-1.2-6.7-1.9c-2.8-0.7-6-1.6-9.5-2.5
			c-1.1-0.3-2.3-0.6-3.5-0.9c0.4-6.1,2.7-14.8-0.9-27.1c4.5,1.2,9.7,2.5,15,3.8C371.3,116.9,382.6,131.5,386.4,140.6z"/>
	</g>
</g>
</svg>
